<?xml version="1.0" standalone="no"?>
<!DOCTYPE svg PUBLIC "-//W3C//DTD SVG 20010904//EN"
 "http://www.w3.org/TR/2001/REC-SVG-20010904/DTD/svg10.dtd">
<svg version="1.0" xmlns="http://www.w3.org/2000/svg"
 width="478.000000pt" height="478.000000pt" viewBox="0 0 478.000000 478.000000"
 preserveAspectRatio="xMidYMid meet">
<metadata>
Created by potrace 1.11, written by Peter Selinger 2001-2013
</metadata>
<g transform="translate(0.000000,478.000000) scale(0.100000,-0.100000)"
fill="#000000" stroke="none">
<path d="M430 4620 c0 -5 5 -10 11 -10 5 0 7 5 4 10 -3 6 -8 10 -11 10 -2 0
-4 -4 -4 -10z"/>
<path d="M480 4615 c-14 -8 -20 -14 -14 -15 17 0 25 -27 8 -27 -7 0 -11 4 -8
9 3 4 0 9 -5 9 -15 2 -31 6 -33 9 -2 1 -13 4 -25 5 -15 2 -20 -2 -16 -12 4 -9
14 -13 26 -9 11 3 16 1 11 -4 -5 -4 -20 -10 -34 -12 -21 -2 -25 1 -24 20 1 26
-12 17 -18 -12 -4 -24 -45 -53 -45 -33 0 8 7 14 15 13 8 0 16 7 17 17 2 9 -1
15 -6 11 -5 -3 -6 -10 -3 -16 5 -8 1 -9 -10 -5 -13 5 -19 1 -23 -13 -6 -21
-31 -23 -46 -5 -5 6 -5 -1 -2 -14 6 -21 4 -23 -14 -18 -12 3 -19 1 -16 -3 3
-5 1 -11 -5 -15 -6 -4 -8 -11 -5 -16 6 -8 -8 -13 -27 -10 -5 0 -8 -3 -8 -9 0
-13 6 -13 31 1 11 5 17 14 15 18 -3 4 6 13 19 19 18 8 26 8 31 0 4 -7 3 -8 -4
-4 -7 4 -12 3 -12 -3 0 -6 -20 -22 -44 -36 -40 -23 -51 -43 -33 -61 3 -4 2
-15 -4 -25 -5 -11 -8 -19 -7 -20 2 0 11 -2 21 -4 11 -2 22 -7 25 -11 4 -4 -1
-4 -10 -1 -10 3 -20 2 -23 -3 -4 -6 -12 -10 -18 -9 -8 0 -8 2 1 6 10 4 10 8 1
19 -8 10 -8 18 0 27 8 10 7 14 -4 14 -8 0 -12 -4 -9 -9 3 -4 0 -8 -7 -8 -7 0
-9 -3 -6 -7 4 -3 1 -13 -6 -22 -11 -14 -10 -14 6 -2 20 15 23 2 5 -18 -10 -11
-10 -13 0 -7 7 5 12 1 12 -9 0 -9 -4 -14 -8 -11 -4 2 -14 1 -21 -3 -9 -6 -10
-11 -2 -15 6 -4 11 -2 11 5 0 8 5 7 17 -2 9 -8 14 -9 11 -4 -4 6 -2 17 4 25 8
13 9 12 5 -1 -3 -9 0 -22 6 -28 8 -8 4 -9 -12 -6 -16 3 -22 0 -20 -13 3 -33
-1 -43 -13 -36 -8 5 -7 0 2 -11 13 -17 13 -18 -1 -13 -9 4 -16 1 -16 -7 0 -7
7 -11 14 -8 18 7 13 -18 -7 -35 -13 -11 -13 -12 0 -10 22 4 28 16 25 49 -1 16
1 26 6 23 5 -3 6 2 3 10 -3 9 -2 16 3 16 5 0 9 -9 10 -20 1 -11 -2 -20 -7 -20
-10 0 -8 -20 4 -39 6 -10 5 -12 -2 -7 -8 5 -12 -1 -12 -14 0 -12 -4 -19 -9
-15 -6 3 -15 -3 -20 -14 -15 -28 -13 -41 2 -14 11 20 14 20 32 6 16 -12 16
-14 3 -10 -10 3 -20 2 -23 -3 -4 -6 -3 -10 2 -10 4 0 19 -10 33 -21 23 -18 23
-19 2 -9 -18 9 -22 8 -22 -5 0 -9 4 -14 9 -10 6 3 8 -4 6 -15 -2 -11 0 -20 6
-20 5 0 9 -5 9 -10 0 -6 -3 -9 -7 -9 -20 3 -26 -2 -13 -11 11 -7 11 -10 2 -10
-7 0 -10 -4 -7 -10 3 -5 2 -10 -3 -10 -5 0 -9 13 -8 29 0 16 3 28 7 26 3 -2 6
2 6 10 0 10 -4 12 -12 5 -7 -6 -15 -6 -22 1 -8 8 -13 7 -18 -2 -5 -7 -4 -10 2
-6 6 4 16 0 22 -7 10 -11 8 -17 -6 -25 -10 -6 -13 -11 -7 -11 7 0 14 -9 17
-20 3 -11 11 -19 19 -17 7 2 10 2 6 0 -13 -8 -9 -23 6 -23 8 0 17 -4 20 -9 4
-5 -4 -7 -16 -4 -19 4 -20 3 -8 -7 13 -10 13 -11 0 -7 -8 2 -14 10 -12 16 4
21 -15 11 -26 -14 -16 -34 -15 -46 1 -18 11 20 14 20 32 6 16 -12 16 -14 3
-10 -10 3 -20 2 -23 -3 -3 -4 0 -10 7 -12 6 -2 11 -19 10 -36 0 -18 4 -30 9
-27 5 4 9 2 9 -3 0 -6 -7 -13 -16 -16 -10 -4 -13 -2 -8 6 4 7 3 8 -5 4 -7 -5
-8 -13 -2 -23 10 -18 3 -55 -9 -48 -5 3 -12 1 -15 -5 -4 -6 -1 -9 7 -8 7 2 12
-3 10 -10 -1 -8 2 -11 8 -7 6 3 8 10 5 15 -3 5 0 12 6 16 7 4 9 3 5 -4 -3 -5
0 -13 6 -15 10 -4 10 -6 1 -6 -19 -1 -16 -22 4 -37 17 -13 17 -14 -1 -7 -18 6
-18 5 -1 -20 16 -25 16 -26 -4 -22 -15 3 -18 0 -14 -13 4 -9 11 -20 17 -24 7
-5 6 -8 -4 -9 -10 0 -9 -3 5 -9 18 -8 17 -9 -5 -7 -14 1 -30 6 -37 10 -6 4
-15 2 -19 -4 -4 -7 -3 -9 4 -5 6 3 13 2 17 -4 4 -6 11 -8 16 -5 5 4 9 1 9 -4
0 -6 6 -11 14 -11 8 0 18 -5 22 -12 4 -6 3 -8 -3 -5 -5 3 -23 8 -39 11 -27 5
-28 4 -10 -9 10 -8 22 -12 27 -10 4 3 6 -3 5 -12 -2 -10 2 -21 8 -25 8 -5 7
-8 -2 -8 -7 0 -11 -4 -7 -9 9 -16 -13 -23 -35 -11 -13 7 -20 7 -20 0 0 -5 6
-10 14 -10 15 0 16 -16 2 -38 -9 -16 -2 -27 13 -18 5 4 8 16 6 28 -3 11 -2 18
2 14 3 -3 12 -1 19 5 9 7 14 6 20 -3 4 -7 4 -10 -1 -6 -4 4 -14 3 -22 -3 -11
-10 -11 -15 -1 -27 7 -9 8 -13 2 -9 -7 4 -11 -5 -12 -24 0 -16 4 -27 9 -24 5
4 9 2 9 -3 0 -6 -7 -13 -16 -16 -10 -4 -13 -2 -8 6 4 7 3 8 -5 4 -7 -5 -8 -13
-2 -23 10 -18 3 -55 -9 -48 -5 3 -12 1 -15 -5 -4 -6 -1 -9 7 -8 7 2 12 -3 10
-10 -1 -8 2 -11 8 -7 6 3 8 10 5 15 -3 5 0 12 6 16 7 4 9 3 5 -4 -3 -5 0 -13
6 -15 10 -4 10 -6 1 -6 -7 -1 -13 -8 -13 -17 0 -8 -4 -13 -9 -9 -6 3 -15 -3
-20 -14 -15 -28 -13 -41 2 -14 11 20 14 20 32 6 16 -12 16 -14 3 -10 -10 3
-20 2 -23 -3 -4 -6 -3 -10 2 -10 4 0 19 -10 33 -21 23 -18 23 -19 3 -9 -19 9
-23 8 -23 -5 0 -9 4 -14 9 -10 6 3 8 -4 6 -15 -2 -11 0 -20 6 -20 5 0 9 -4 9
-10 0 -5 -3 -9 -7 -9 -20 3 -26 -2 -13 -11 11 -7 11 -10 2 -10 -7 0 -10 -4 -7
-10 3 -5 2 -10 -3 -10 -5 0 -9 13 -8 29 0 16 3 28 7 26 3 -2 6 2 6 10 0 10 -4
12 -12 5 -7 -6 -15 -6 -22 1 -8 8 -13 7 -18 -2 -5 -7 -4 -10 2 -6 6 4 16 0 22
-7 10 -11 8 -17 -6 -25 -10 -6 -13 -11 -7 -11 7 0 14 -9 17 -20 3 -11 11 -19
19 -17 7 2 10 2 6 0 -13 -8 -9 -23 6 -23 8 0 17 -4 20 -9 4 -5 -4 -7 -16 -4
-19 4 -20 3 -8 -7 13 -10 13 -11 0 -7 -8 2 -14 10 -12 16 4 21 -15 11 -26 -14
-16 -34 -15 -46 1 -18 11 20 14 20 32 6 16 -12 16 -14 3 -10 -10 3 -20 2 -23
-3 -3 -4 0 -10 7 -12 6 -2 11 -19 10 -36 0 -18 4 -30 9 -27 5 4 9 2 9 -3 0 -6
-7 -13 -16 -16 -10 -4 -13 -2 -8 6 4 7 3 8 -5 4 -7 -5 -8 -13 -2 -23 10 -18 3
-55 -9 -48 -5 3 -12 1 -15 -5 -4 -6 -1 -9 7 -8 7 2 12 -3 10 -10 -1 -8 2 -11
8 -7 6 3 8 10 5 15 -3 5 0 12 6 16 7 4 9 3 5 -4 -3 -5 0 -13 6 -15 10 -4 10
-6 1 -6 -19 -1 -16 -22 5 -37 16 -13 16 -14 -2 -7 -18 6 -18 5 -1 -20 16 -25
16 -26 -4 -22 -15 3 -18 0 -14 -13 4 -9 11 -20 17 -24 7 -5 6 -8 -4 -9 -10 0
-9 -3 5 -9 18 -8 17 -9 -5 -7 -14 1 -30 6 -37 10 -6 4 -15 2 -19 -4 -4 -7 -3
-9 4 -5 6 3 13 2 17 -4 4 -6 11 -8 16 -5 5 4 9 1 9 -4 0 -6 6 -11 14 -11 8 0
18 -5 22 -12 4 -6 3 -8 -3 -5 -5 3 -23 8 -39 11 -27 5 -28 4 -10 -9 10 -8 22
-12 27 -10 4 3 6 -3 5 -12 -2 -10 2 -21 8 -25 8 -5 7 -8 -2 -8 -7 0 -11 -4 -7
-9 9 -16 -13 -23 -35 -11 -13 7 -20 7 -20 0 0 -5 6 -10 14 -10 15 0 16 -16 2
-38 -9 -16 -2 -27 13 -18 5 4 8 16 6 28 -3 11 -2 18 2 14 3 -3 12 -1 19 5 9 7
14 6 20 -3 4 -7 4 -10 -1 -6 -4 4 -14 3 -22 -3 -11 -10 -11 -15 -1 -27 7 -9 8
-13 2 -9 -7 4 -11 -5 -12 -24 0 -16 4 -27 9 -24 5 4 9 2 9 -3 0 -6 -7 -13 -16
-16 -10 -4 -13 -2 -8 6 4 7 3 8 -5 4 -7 -5 -8 -13 -2 -23 10 -18 3 -55 -9 -48
-5 3 -12 1 -15 -5 -4 -6 -1 -9 7 -8 7 2 12 -3 10 -10 -1 -8 2 -11 8 -7 6 3 8
10 5 15 -3 5 0 12 6 16 7 4 9 3 5 -4 -3 -5 0 -13 6 -15 10 -4 10 -6 1 -6 -7
-1 -13 -8 -13 -17 0 -8 -4 -13 -9 -9 -6 3 -15 -3 -20 -14 -15 -28 -13 -41 2
-14 11 20 14 20 32 6 16 -12 16 -14 3 -10 -10 3 -20 2 -23 -3 -4 -6 -3 -10 2
-10 4 0 19 -10 33 -21 23 -18 23 -19 2 -9 -18 9 -22 8 -22 -5 0 -9 4 -14 9
-10 6 3 8 -4 6 -15 -2 -11 0 -20 6 -20 5 0 9 -5 9 -10 0 -6 -3 -9 -8 -9 -19 3
-25 -2 -12 -11 11 -7 11 -10 2 -10 -7 0 -10 -5 -7 -10 3 -6 2 -10 -3 -10 -5 0
-9 13 -8 29 0 16 3 28 7 26 3 -2 6 2 6 10 0 10 -4 12 -12 5 -7 -6 -15 -6 -22
1 -8 8 -13 7 -18 -2 -5 -7 -4 -10 2 -6 6 4 16 0 22 -7 10 -11 8 -17 -6 -25
-10 -6 -13 -11 -7 -11 7 0 14 -9 17 -20 3 -11 11 -19 19 -17 7 2 10 2 6 0 -13
-8 -9 -23 6 -23 8 0 17 -4 20 -9 4 -5 -4 -7 -16 -4 -19 4 -20 3 -8 -7 13 -10
13 -11 0 -7 -8 2 -14 10 -12 16 4 21 -15 11 -26 -14 -16 -34 -15 -46 1 -18 11
20 14 20 32 6 16 -12 16 -14 3 -10 -10 3 -20 2 -23 -3 -3 -4 0 -10 7 -12 6 -2
11 -19 10 -36 0 -18 4 -30 9 -27 5 4 9 2 9 -3 0 -6 -7 -13 -16 -16 -10 -4 -13
-2 -8 6 4 7 3 8 -5 4 -7 -5 -8 -13 -2 -23 10 -18 3 -55 -9 -48 -5 3 -12 1 -15
-5 -4 -6 -1 -9 7 -8 7 2 12 -3 10 -10 -1 -8 2 -11 8 -7 6 3 8 10 5 15 -3 5 0
12 6 16 7 4 9 3 5 -4 -3 -5 0 -13 6 -15 10 -4 10 -6 1 -6 -19 -1 -16 -22 4
-37 17 -13 17 -14 -1 -7 -18 6 -18 5 -1 -20 16 -25 16 -26 -4 -22 -15 3 -18 0
-14 -13 4 -9 11 -20 17 -24 7 -5 6 -8 -4 -9 -10 0 -9 -3 5 -9 18 -8 17 -9 -5
-7 -14 1 -30 6 -37 10 -6 4 -15 2 -19 -4 -4 -7 -3 -9 4 -5 6 3 13 2 17 -4 4
-6 11 -8 16 -5 5 4 9 1 9 -4 0 -6 6 -11 14 -11 8 0 18 -5 22 -12 4 -6 3 -8 -3
-5 -5 3 -23 8 -39 11 -27 5 -28 4 -10 -9 10 -8 22 -12 27 -10 4 3 6 -3 5 -12
-2 -10 2 -21 8 -25 8 -5 7 -8 -2 -8 -7 0 -11 -4 -7 -9 9 -16 -13 -23 -35 -11
-13 7 -20 7 -20 0 0 -5 6 -10 14 -10 15 0 16 -16 2 -38 -9 -16 -2 -27 13 -18
5 4 8 16 6 28 -3 11 -2 18 2 14 3 -3 12 -1 19 5 9 7 14 6 20 -3 4 -7 4 -10 -1
-6 -4 4 -14 3 -22 -3 -11 -10 -11 -15 -1 -27 7 -9 8 -13 2 -9 -7 4 -11 -5 -12
-24 0 -16 4 -27 9 -24 5 4 9 2 9 -3 0 -6 -7 -13 -16 -16 -10 -4 -13 -2 -8 6 4
7 3 8 -5 4 -7 -5 -8 -13 -2 -23 10 -18 3 -55 -9 -48 -5 3 -12 1 -15 -5 -4 -6
-1 -9 7 -8 7 2 12 -3 10 -10 -1 -8 2 -11 8 -7 6 3 8 10 5 15 -3 5 0 12 6 16 7
4 9 3 5 -4 -3 -5 0 -13 6 -15 10 -4 10 -6 1 -6 -7 -1 -13 -8 -13 -17 0 -8 -4
-13 -9 -9 -6 3 -15 -3 -20 -14 -15 -28 -13 -41 2 -14 11 20 14 20 32 6 16 -12
16 -14 3 -10 -10 3 -20 2 -23 -3 -4 -6 -3 -10 2 -10 4 0 19 -10 33 -21 23 -18
23 -19 2 -9 -18 9 -22 8 -22 -5 0 -9 4 -14 9 -10 6 3 8 -4 6 -15 -2 -11 0 -20
6 -20 5 0 9 -4 9 -10 0 -5 -3 -9 -7 -9 -20 3 -26 -2 -13 -11 11 -7 11 -10 2
-10 -7 0 -10 -4 -7 -10 3 -5 2 -10 -3 -10 -5 0 -9 13 -8 29 0 16 3 28 7 26 3
-2 6 2 6 10 0 10 -4 12 -12 5 -7 -6 -15 -6 -22 1 -8 8 -13 7 -18 -2 -5 -7 -4
-10 2 -6 6 4 16 0 22 -7 10 -11 8 -17 -6 -25 -10 -6 -13 -11 -7 -11 7 0 14 -9
17 -20 3 -11 11 -19 19 -17 7 2 10 2 5 0 -12 -8 -8 -23 7 -23 8 0 17 -4 20 -9
4 -5 -4 -7 -16 -4 -19 4 -20 3 -8 -7 13 -10 13 -11 0 -7 -8 2 -14 10 -13 16 5
21 -14 11 -25 -14 -16 -34 -15 -46 1 -18 11 20 14 20 32 6 16 -12 16 -14 3
-10 -10 3 -20 2 -23 -3 -3 -4 0 -10 7 -12 6 -2 11 -19 10 -36 0 -18 4 -30 9
-27 5 4 9 2 9 -3 0 -6 -7 -13 -16 -16 -10 -4 -13 -2 -8 6 4 7 3 8 -5 4 -7 -5
-8 -13 -2 -23 10 -18 3 -55 -9 -48 -5 3 -12 1 -15 -5 -4 -6 -1 -9 7 -8 7 2 12
-3 10 -10 -1 -8 2 -11 8 -7 6 3 8 10 5 15 -3 5 0 12 6 16 7 4 9 3 5 -4 -3 -5
0 -13 6 -15 10 -4 10 -6 1 -6 -19 -1 -16 -22 4 -37 17 -13 17 -14 -1 -7 -18 6
-18 5 -1 -20 16 -25 16 -26 -4 -22 -15 3 -18 0 -14 -13 4 -9 11 -20 17 -24 7
-5 6 -8 -4 -9 -10 0 -8 -3 5 -9 16 -7 16 -9 4 -9 -9 -1 -20 -8 -23 -17 -3 -8
-10 -13 -15 -9 -5 3 -12 2 -15 -3 -7 -12 26 -11 42 1 9 7 17 6 25 -2 9 -10 8
-11 -4 -6 -13 5 -16 1 -15 -17 0 -13 6 -26 11 -30 6 -5 5 -8 -3 -8 -7 0 -11
-4 -7 -9 9 -16 -13 -23 -35 -11 -13 7 -20 7 -20 0 0 -5 6 -10 13 -10 7 0 13
-11 13 -25 0 -15 -5 -24 -11 -21 -7 2 -12 -2 -12 -9 0 -8 7 -11 15 -7 11 4 13
1 7 -8 -5 -8 -4 -11 2 -7 6 4 9 20 8 37 -1 17 0 29 3 26 3 -3 11 -1 18 5 9 7
14 6 20 -3 4 -7 4 -10 -1 -6 -12 11 -37 -13 -27 -26 9 -11 -9 -58 -22 -57 -21
2 -26 0 -20 -10 5 -8 9 -8 14 1 5 8 10 9 14 2 4 -6 -2 -15 -11 -21 -16 -10
-16 -10 4 -8 12 2 26 7 30 12 5 4 3 5 -4 2 -6 -4 -10 -1 -9 5 3 19 25 55 26
41 0 -6 -5 -15 -10 -18 -8 -5 -7 -11 1 -21 6 -8 8 -14 4 -14 -4 0 -1 -8 6 -17
13 -16 12 -17 -3 -4 -26 20 -22 -4 4 -30 22 -21 22 -21 2 -11 -12 6 -25 8 -29
4 -4 -4 -5 2 -3 12 1 10 -3 20 -10 22 -7 1 -8 0 -2 -3 8 -3 6 -11 -4 -22 -13
-14 -12 -16 11 -18 32 -1 45 -20 39 -55 -4 -20 -1 -28 9 -28 8 0 16 -4 16 -10
1 -5 2 -16 3 -22 0 -7 8 -13 16 -14 31 -2 34 -6 15 -14 -17 -8 -18 -9 -2 -11
9 -1 22 -3 27 -4 6 -1 13 -3 16 -4 4 0 1 -8 -6 -16 -11 -13 -10 -14 3 -9 22 8
18 43 -5 39 -15 -3 -16 -1 -8 16 13 23 22 25 13 2 -4 -10 -2 -14 4 -10 6 4 18
-2 28 -13 10 -11 22 -17 28 -13 6 3 7 1 3 -6 -6 -9 -11 -9 -22 0 -10 8 -14 8
-14 0 0 -10 13 -15 32 -12 5 0 8 -4 8 -10 0 -5 4 -8 9 -5 5 3 8 14 6 24 -1 9
0 12 2 6 7 -20 49 -34 63 -21 10 9 11 9 6 0 -4 -7 -2 -13 4 -13 6 0 9 -4 6 -9
-7 -10 6 -9 42 3 13 4 20 12 15 19 -4 8 -1 7 9 -1 11 -9 18 -10 23 -2 4 6 13
7 23 1 9 -4 25 -7 34 -6 10 2 22 -4 27 -13 8 -15 12 -15 23 -3 9 10 10 12 1 7
-7 -4 -13 -2 -13 4 0 7 8 9 21 5 16 -6 20 -4 13 6 -6 12 -5 12 8 1 11 -9 18
-10 23 -2 4 6 13 7 23 1 9 -4 25 -7 35 -5 10 1 21 -4 24 -12 3 -8 9 -14 14
-14 4 0 5 7 2 17 -5 12 -3 14 7 8 10 -6 12 -4 7 8 -9 24 0 21 14 -4 8 -15 8
-19 0 -15 -6 4 -11 2 -11 -4 0 -7 7 -9 16 -6 12 4 15 2 10 -9 -3 -8 -3 -15 0
-15 2 0 8 9 12 21 8 20 8 20 37 -3 17 -12 24 -15 18 -7 -7 9 -9 20 -5 24 4 5
2 6 -3 2 -6 -3 -12 6 -13 21 -2 26 -1 26 14 -5 16 -31 44 -45 44 -22 0 5 -5 7
-12 3 -7 -4 -8 -3 -4 5 4 6 12 9 17 6 5 -4 9 0 9 7 0 10 2 10 9 0 11 -17 21
-17 33 0 5 8 7 4 4 -15 -3 -16 -1 -25 5 -22 5 4 7 11 4 16 -9 14 12 11 45 -6
26 -14 29 -14 24 0 -3 8 -9 13 -13 11 -4 -3 -13 -1 -20 3 -10 7 -10 9 2 14 8
3 24 -3 36 -14 17 -16 25 -18 39 -9 16 11 16 11 -1 6 -11 -4 -16 -2 -12 5 4 5
16 7 27 3 16 -5 19 -3 12 7 -6 12 -5 12 8 1 11 -9 18 -10 23 -2 4 6 13 7 23 1
9 -4 25 -7 34 -6 10 2 22 -4 27 -13 8 -15 12 -15 23 -3 9 10 10 12 1 7 -7 -4
-13 -2 -13 4 0 7 8 9 21 5 16 -6 20 -4 13 6 -6 12 -5 12 8 1 11 -9 18 -10 23
-2 4 6 13 7 23 1 9 -4 25 -7 35 -5 10 1 21 -4 24 -12 3 -8 9 -14 14 -14 4 0 5
7 2 17 -5 12 -3 14 7 8 10 -6 12 -4 7 8 -9 24 0 21 14 -4 8 -15 8 -19 0 -15
-6 4 -11 2 -11 -4 0 -7 7 -9 16 -6 12 4 15 2 10 -9 -3 -8 -3 -15 0 -15 2 0 8
9 12 21 8 20 8 20 37 -3 17 -12 24 -15 18 -7 -7 9 -9 20 -5 24 4 5 2 6 -3 2
-6 -3 -12 6 -13 21 -2 26 -1 26 14 -6 16 -30 44 -44 44 -21 0 5 -5 7 -12 3 -7
-4 -8 -3 -4 5 4 6 12 9 17 6 5 -4 9 0 9 7 0 10 2 10 9 0 11 -17 21 -17 33 0 5
8 7 4 4 -15 -3 -16 -1 -25 5 -22 5 4 7 11 4 16 -9 14 12 11 45 -6 26 -14 29
-14 24 0 -3 8 -9 13 -13 11 -4 -3 -13 -1 -20 3 -10 7 -10 9 2 14 8 3 24 -3 36
-14 17 -16 25 -18 39 -9 16 11 16 11 -1 6 -11 -4 -16 -2 -12 5 4 5 16 7 27 3
16 -5 19 -3 12 7 -6 12 -5 12 8 1 11 -9 18 -10 23 -2 4 6 13 7 23 1 9 -4 25
-7 34 -6 10 2 22 -4 27 -13 8 -15 12 -15 23 -3 9 10 10 12 0 7 -6 -4 -12 -2
-12 4 0 7 8 9 21 5 16 -6 20 -4 13 6 -6 12 -5 12 8 1 11 -9 18 -10 23 -2 4 6
13 7 23 1 9 -4 25 -7 35 -5 10 1 21 -4 24 -12 3 -8 9 -14 14 -14 4 0 5 7 2 17
-5 12 -3 14 7 8 10 -6 12 -4 7 8 -9 24 0 21 14 -4 8 -15 8 -19 0 -15 -6 4 -11
2 -11 -4 0 -7 7 -9 16 -6 12 4 15 2 10 -9 -3 -8 -3 -15 0 -15 2 0 8 9 12 21 8
20 8 20 37 -3 17 -12 24 -15 18 -7 -7 9 -9 20 -5 24 4 5 2 6 -3 2 -6 -3 -12 6
-13 21 -2 26 -1 26 14 -5 16 -31 44 -45 44 -22 0 5 -5 7 -12 3 -7 -4 -8 -3 -4
5 4 6 12 9 17 6 5 -4 9 0 9 7 0 10 2 10 9 0 11 -17 21 -17 33 0 5 8 7 4 4 -15
-3 -16 -1 -25 5 -22 5 4 7 11 4 16 -9 14 12 11 45 -6 26 -14 29 -14 24 0 -3 8
-9 13 -13 11 -4 -3 -13 -1 -20 3 -10 7 -10 9 2 14 8 3 24 -3 36 -14 17 -16 25
-18 39 -9 16 11 16 11 -1 6 -11 -4 -16 -2 -12 5 4 5 16 7 27 3 16 -5 19 -3 12
7 -6 12 -5 12 8 1 11 -9 18 -10 23 -2 4 6 13 7 23 1 9 -4 25 -7 34 -6 10 2 22
-4 27 -13 8 -15 12 -15 23 -3 9 10 10 12 1 7 -7 -4 -13 -2 -13 4 0 7 8 9 21 5
16 -6 20 -4 13 6 -6 12 -5 12 8 1 11 -9 18 -10 23 -2 4 6 13 7 23 1 9 -4 25
-7 35 -5 10 1 21 -4 24 -12 3 -8 9 -14 14 -14 4 0 5 7 2 17 -5 12 -3 14 7 8
10 -6 12 -4 7 8 -9 24 0 21 14 -4 8 -15 8 -19 0 -15 -6 4 -11 2 -11 -4 0 -7 7
-9 16 -6 12 4 15 2 10 -9 -3 -8 -3 -15 0 -15 2 0 8 9 12 21 8 20 8 20 37 -3
17 -12 24 -15 18 -7 -7 9 -9 20 -5 24 4 5 2 6 -3 2 -6 -3 -12 6 -13 21 -2 26
-1 26 14 -5 16 -31 44 -45 44 -22 0 5 -5 7 -12 3 -7 -4 -8 -3 -4 5 4 6 12 9
17 6 5 -4 9 0 9 7 0 10 2 10 9 0 11 -17 21 -17 33 0 5 8 7 4 4 -15 -3 -16 -1
-25 5 -22 5 4 7 11 4 16 -9 14 12 11 45 -6 26 -14 29 -14 24 0 -3 8 -9 13 -13
11 -4 -3 -13 -1 -20 3 -10 7 -10 9 2 14 8 3 24 -3 36 -14 17 -16 25 -18 39 -9
16 11 16 11 -1 6 -11 -4 -16 -2 -12 5 4 5 16 7 27 3 16 -5 19 -3 12 7 -6 12
-5 12 8 1 11 -9 18 -10 23 -2 4 6 13 7 23 1 9 -4 25 -7 34 -6 10 2 22 -4 27
-13 8 -15 12 -15 23 -3 9 10 10 12 1 7 -7 -4 -13 -2 -13 4 0 7 8 9 21 5 16 -6
20 -4 13 6 -6 12 -5 12 8 1 11 -9 18 -10 23 -2 4 6 13 7 23 1 9 -4 25 -7 35
-5 10 1 21 -4 24 -12 3 -8 9 -14 14 -14 4 0 5 7 2 17 -5 12 -3 14 7 8 10 -6
12 -4 7 8 -9 24 0 21 14 -4 8 -15 8 -19 0 -15 -6 4 -11 2 -11 -4 0 -7 7 -9 16
-6 12 4 15 2 10 -9 -3 -8 -3 -15 0 -15 2 0 8 9 12 21 8 20 8 20 37 -3 17 -12
24 -15 18 -7 -7 9 -9 20 -5 24 4 5 2 6 -3 2 -6 -3 -12 6 -13 21 -2 26 -1 26
14 -6 16 -30 44 -44 44 -21 0 5 -5 7 -12 3 -7 -4 -8 -3 -4 5 4 6 12 9 17 6 5
-4 9 0 9 7 0 10 2 10 9 0 11 -17 21 -17 33 0 5 8 7 4 4 -15 -3 -16 -1 -25 5
-22 5 4 7 11 4 16 -9 14 12 11 45 -6 26 -14 29 -14 24 0 -3 8 -9 13 -13 11 -4
-3 -13 -1 -20 3 -10 7 -10 9 2 14 8 3 24 -3 36 -14 17 -16 25 -18 39 -9 16 11
16 11 -1 6 -11 -4 -16 -2 -12 5 4 5 16 7 27 3 16 -5 19 -3 12 7 -6 12 -5 12 8
1 11 -9 18 -10 23 -2 4 6 13 7 23 1 9 -4 25 -7 34 -6 10 2 22 -4 27 -13 8 -15
12 -15 23 -3 9 10 10 12 1 7 -7 -4 -13 -2 -13 4 0 7 8 9 21 5 16 -6 20 -4 13
6 -6 12 -5 12 8 1 11 -9 18 -10 23 -2 4 6 13 7 23 1 9 -4 25 -7 35 -5 10 1 21
-4 24 -12 3 -8 9 -14 14 -14 4 0 5 7 2 17 -5 12 -3 14 7 8 10 -6 12 -4 7 8 -9
24 0 21 14 -4 8 -15 8 -19 0 -15 -6 4 -11 2 -11 -4 0 -7 7 -9 16 -6 12 4 15 2
10 -9 -3 -8 -3 -15 0 -15 2 0 8 9 12 21 8 20 8 20 37 -3 17 -12 24 -15 18 -7
-7 9 -9 20 -5 24 4 5 2 6 -3 2 -6 -3 -12 6 -13 21 -2 26 -1 26 14 -5 16 -31
44 -45 44 -22 0 5 -5 7 -12 3 -7 -4 -8 -3 -4 5 4 6 12 9 17 6 5 -4 9 0 9 7 0
10 2 10 9 0 11 -17 21 -17 33 0 5 8 7 4 4 -15 -3 -16 -1 -25 5 -22 5 4 7 11 4
16 -9 14 12 11 45 -6 26 -13 29 -13 24 0 -3 8 -9 14 -12 13 -4 0 -14 0 -22 1
-13 1 -13 2 0 11 9 5 19 5 27 -1 7 -6 17 -8 22 -5 5 4 13 1 17 -5 4 -8 3 -9
-4 -5 -7 4 -12 2 -12 -3 0 -14 17 -14 25 -1 4 6 11 8 16 4 5 -3 7 -9 4 -14 -3
-5 0 -12 6 -16 7 -4 9 -3 5 4 -3 6 -2 13 4 17 19 12 10 25 -15 21 -14 -3 -25
-1 -25 3 0 11 49 11 56 0 3 -5 13 -9 22 -9 14 0 13 2 -3 13 -14 11 -15 16 -5
22 9 6 11 4 5 -5 -6 -10 -4 -12 8 -7 10 4 16 2 14 -6 -1 -7 6 -11 18 -9 11 2
34 4 50 4 17 0 22 3 13 5 -10 2 -18 9 -18 14 0 5 -11 2 -25 -7 -23 -15 -25
-15 -19 0 3 9 10 14 14 11 5 -3 13 3 19 12 6 10 11 12 11 6 0 -7 7 -13 16 -13
14 0 14 3 4 15 -11 13 -10 14 3 10 10 -4 18 1 22 16 l7 22 13 -22 c9 -18 13
-20 18 -8 3 8 1 19 -5 25 -7 7 -7 16 0 27 6 12 11 14 16 6 4 -6 2 -11 -3 -11
-6 0 -11 -5 -11 -11 0 -6 5 -7 13 -2 6 4 18 8 25 9 8 2 17 6 20 10 4 4 0 5 -9
1 -9 -3 -23 3 -32 14 -9 10 -13 19 -7 19 5 0 11 -4 15 -9 3 -6 14 -9 25 -8 13
1 16 5 10 12 -6 7 -4 19 6 33 15 22 11 47 -7 37 -14 -9 -11 -27 4 -19 6 4 4
-2 -6 -14 -11 -12 -16 -26 -12 -34 6 -10 5 -10 -5 -1 -10 9 -10 15 -2 26 7 8
9 17 5 20 -3 4 0 13 7 22 10 12 10 15 0 15 -8 0 -10 3 -7 6 4 4 18 -1 32 -10
14 -9 25 -12 25 -7 0 5 -6 12 -12 15 -10 3 -8 9 5 19 17 14 17 15 -2 20 -14 3
-18 1 -14 -9 3 -8 0 -14 -5 -14 -14 0 -24 17 -14 24 4 2 7 30 6 60 -1 31 3 56
8 56 5 0 7 -4 3 -9 -3 -5 0 -13 6 -16 16 -11 23 3 9 20 -10 12 -9 16 4 21 9 3
16 11 16 17 0 8 -3 8 -11 0 -6 -6 -18 -9 -26 -6 -11 5 -8 10 13 20 16 7 22 11
13 9 -17 -4 -42 27 -31 39 10 10 9 59 -1 66 -5 3 -2 9 6 12 11 4 15 0 12 -14
-2 -10 0 -19 4 -19 5 0 9 11 9 25 -1 20 -4 24 -19 20 -11 -4 -19 -2 -19 4 0 6
7 11 15 11 8 0 12 6 9 15 -4 10 0 13 15 10 12 -2 19 0 16 5 -3 5 -14 7 -25 5
-22 -4 -36 10 -20 20 8 5 7 12 -2 23 -11 13 -11 14 1 8 9 -6 12 -5 9 5 -3 8
-11 13 -17 11 -7 -1 -9 2 -6 8 4 6 9 9 12 6 5 -5 43 30 43 41 0 4 -5 2 -11 -4
-6 -6 -18 -9 -26 -6 -11 5 -8 10 13 20 16 7 22 11 13 9 -23 -6 -42 29 -24 44
20 17 19 31 -2 24 -10 -3 -7 1 7 9 14 9 29 13 34 10 5 -4 6 -1 2 5 -4 6 -13 9
-20 6 -8 -3 -17 -1 -21 5 -4 7 3 11 17 11 16 0 19 3 10 9 -8 4 -13 12 -13 17
1 5 -3 9 -9 9 -11 0 -14 20 -2 20 4 0 16 6 27 12 20 12 20 12 -2 10 -12 0 -19
-5 -17 -9 3 -4 -3 -5 -13 -1 -14 6 -13 9 12 19 22 10 25 13 11 14 -11 0 -16 3
-13 7 4 3 0 17 -9 31 -9 13 -11 21 -5 18 6 -4 18 -3 27 2 15 8 15 10 0 15 -12
5 -15 3 -10 -6 5 -9 4 -9 -6 0 -7 6 -20 9 -29 6 -13 -4 -14 -3 -1 5 8 6 17 9
21 7 3 -3 7 7 6 21 0 24 0 24 -21 7 -21 -18 -21 -18 -3 3 9 11 14 24 10 29 -5
4 -2 5 5 1 8 -5 12 1 12 20 0 22 -3 24 -14 15 -10 -8 -16 -9 -21 -1 -4 6 -1 9
6 8 7 -2 18 12 24 30 l12 34 17 -24 c15 -21 16 -21 6 -1 -5 12 -15 25 -20 28
-6 4 -8 11 -4 16 3 6 12 3 21 -8 13 -16 13 -16 3 5 -9 19 -14 21 -26 12 -7 -7
-11 -16 -8 -21 3 -5 0 -9 -5 -9 -14 0 -14 17 -1 25 6 3 10 13 10 22 0 13 -3
13 -17 2 -17 -13 -17 -13 0 7 19 23 23 39 5 28 -7 -4 -8 -3 -4 4 4 7 13 12 20
12 8 0 14 11 14 26 0 17 -3 22 -9 13 -4 -7 -5 -18 -2 -24 4 -5 2 -7 -2 -2 -5
4 -18 -1 -29 -10 -21 -18 -21 -18 -3 3 9 11 14 24 10 29 -5 4 -2 4 6 0 11 -6
13 -4 8 8 -4 10 -1 17 5 17 9 0 9 3 1 11 -6 6 -9 18 -6 27 5 11 3 13 -7 7 -9
-5 -11 -4 -6 4 4 6 17 9 29 6 12 -2 17 -2 10 1 -6 3 -9 17 -7 32 3 20 2 23 -5
12 -5 -8 -7 -19 -4 -25 4 -5 3 -7 -2 -3 -4 4 -15 2 -24 -5 -14 -10 -14 -10 -4
4 7 9 9 20 5 24 -4 5 -1 5 6 1 16 -9 16 6 0 23 -11 10 -9 11 7 5 18 -7 18 -6
7 9 -8 8 -21 13 -30 10 -14 -4 -15 -3 -2 5 8 6 18 8 23 5 4 -3 8 1 6 8 -3 27
1 37 19 41 10 3 19 12 19 21 0 9 -4 14 -9 11 -5 -3 -6 -10 -3 -15 4 -5 -1 -9
-9 -9 -11 0 -16 9 -16 26 0 22 -3 24 -14 15 -10 -8 -16 -9 -21 -1 -4 6 -1 9 6
8 7 -2 18 12 24 30 l12 34 17 -24 c15 -21 16 -21 6 -1 -5 12 -15 25 -20 28 -6
4 -8 11 -4 16 3 6 12 3 21 -8 13 -16 13 -16 3 5 -9 19 -14 21 -26 12 -7 -7
-11 -16 -8 -21 3 -5 0 -9 -5 -9 -14 0 -14 17 -1 25 6 3 10 13 10 22 0 13 -2
14 -17 2 -16 -13 -17 -12 -4 3 10 14 17 15 33 7 17 -9 18 -8 7 9 -7 11 -20 18
-28 15 -9 -2 -5 2 9 10 14 9 29 13 34 10 5 -4 6 -1 2 5 -4 6 -13 9 -20 6 -8
-3 -17 -1 -21 5 -4 7 3 11 17 11 16 0 19 3 10 9 -8 4 -13 12 -13 17 1 5 -3 9
-9 9 -11 0 -14 20 -2 20 4 0 16 6 27 12 20 12 20 12 -2 10 -12 0 -19 -5 -17
-9 3 -4 -3 -5 -13 -1 -14 6 -13 9 12 19 22 10 25 13 11 14 -11 0 -16 3 -13 7
4 3 0 17 -9 31 -9 13 -11 21 -5 18 6 -4 18 -3 27 2 15 8 15 10 0 15 -12 5 -15
3 -10 -6 5 -9 4 -9 -6 0 -7 6 -20 9 -29 6 -13 -4 -14 -3 -1 5 8 6 17 9 21 7 3
-3 7 7 7 21 -1 24 -1 24 -22 7 -21 -18 -21 -18 -3 3 9 11 14 24 10 29 -5 4 -2
5 5 1 9 -5 12 2 10 26 -2 18 -7 36 -11 39 -5 3 -2 9 6 12 11 4 15 0 12 -14 -2
-10 0 -19 4 -19 5 0 9 11 9 25 -1 20 -4 24 -19 20 -11 -4 -19 -2 -19 4 0 6 7
11 15 11 8 0 12 6 9 15 -4 10 0 13 15 10 12 -2 19 0 16 5 -3 5 -14 7 -25 5
-22 -4 -36 10 -20 20 8 5 7 12 -2 23 -11 13 -11 14 1 8 9 -6 12 -5 9 5 -3 8
-11 13 -17 11 -7 -1 -9 2 -6 8 4 6 9 9 12 6 5 -5 43 30 43 41 0 4 -5 2 -11 -4
-6 -6 -18 -9 -26 -6 -11 5 -8 10 13 20 16 7 22 11 13 9 -17 -4 -42 27 -31 39
10 10 9 59 -1 66 -5 3 -2 9 6 12 11 4 15 0 12 -14 -2 -10 0 -19 4 -19 5 0 9
11 9 25 0 20 -4 24 -19 20 -11 -4 -19 -2 -19 4 0 6 7 11 15 11 8 0 12 6 9 15
-4 10 0 13 15 10 12 -2 19 0 16 5 -3 5 -14 7 -25 5 -22 -4 -36 10 -20 20 8 5
7 12 -2 23 -11 13 -11 14 1 8 9 -6 12 -5 9 5 -3 8 -11 13 -17 11 -7 -1 -9 2
-6 8 4 6 9 9 12 6 5 -5 43 30 43 41 0 4 -5 2 -11 -4 -6 -6 -18 -9 -26 -6 -11
5 -8 10 13 20 16 7 22 11 13 9 -23 -6 -42 29 -24 44 20 17 19 31 -2 24 -10 -3
-7 1 7 9 14 9 29 13 34 10 5 -4 6 -1 2 5 -4 6 -13 9 -20 6 -8 -3 -17 -1 -21 5
-4 7 3 11 17 11 16 0 19 3 10 9 -8 4 -13 12 -13 17 1 5 -3 9 -9 9 -11 0 -14
20 -2 20 4 0 16 6 27 12 20 12 20 12 -2 10 -12 0 -19 -5 -17 -9 3 -4 -3 -5
-13 -1 -14 6 -13 9 12 19 22 10 25 13 11 14 -11 0 -16 3 -13 7 4 3 0 17 -9 31
-9 13 -11 21 -5 18 6 -4 18 -3 27 2 15 8 15 10 0 15 -12 5 -15 3 -10 -6 5 -9
4 -9 -6 0 -7 6 -20 9 -29 6 -13 -4 -14 -3 -1 5 8 6 17 9 21 7 3 -3 7 7 7 21
-1 24 -1 24 -22 7 -21 -18 -21 -18 -3 3 9 11 14 24 10 29 -5 4 -2 5 5 1 8 -5
12 1 12 20 0 22 -3 24 -14 15 -10 -8 -16 -9 -21 -1 -4 6 -1 9 6 8 7 -2 18 12
24 30 l12 34 17 -24 c15 -21 16 -21 6 -1 -5 12 -15 25 -20 28 -6 4 -8 11 -4
16 3 6 12 3 21 -8 13 -16 13 -16 3 5 -9 19 -14 21 -26 12 -7 -7 -11 -16 -8
-21 3 -5 0 -9 -5 -9 -14 0 -14 17 -1 25 6 3 10 13 10 22 0 13 -3 13 -17 2 -17
-13 -17 -13 0 7 19 23 23 39 5 28 -7 -4 -8 -3 -4 4 4 7 13 12 20 12 8 0 14 11
14 26 -1 17 -3 22 -9 13 -4 -7 -5 -18 -2 -24 4 -5 2 -7 -2 -2 -5 4 -18 -1 -29
-10 -21 -18 -21 -18 -3 3 9 11 14 24 10 29 -5 4 -2 4 6 0 11 -6 13 -4 8 8 -4
10 -1 17 5 17 9 0 9 3 1 11 -6 6 -9 18 -6 27 5 11 3 13 -7 7 -9 -5 -11 -4 -6
4 4 6 17 9 29 6 12 -2 17 -2 10 1 -6 3 -9 17 -7 32 3 20 2 23 -5 12 -5 -8 -7
-19 -4 -25 4 -5 3 -7 -2 -3 -4 4 -15 2 -24 -5 -14 -10 -14 -10 -4 4 7 9 9 20
5 24 -4 5 -1 5 6 1 16 -9 16 6 -1 23 -10 10 -8 11 8 5 18 -7 18 -6 7 9 -8 8
-21 13 -30 10 -14 -4 -15 -3 -2 5 8 6 18 8 23 5 4 -3 8 1 6 8 -3 27 1 37 19
41 10 3 19 12 19 21 0 9 -4 14 -9 11 -5 -3 -6 -10 -3 -15 4 -5 -1 -9 -9 -9
-11 0 -16 9 -16 26 0 22 -3 24 -14 15 -10 -8 -16 -9 -21 -1 -4 6 -1 9 6 8 7
-2 18 12 24 30 l12 34 17 -24 c15 -21 16 -21 6 -1 -5 12 -15 25 -20 28 -6 4
-8 11 -4 16 3 6 12 3 21 -8 13 -16 13 -16 3 5 -9 19 -14 21 -26 12 -7 -7 -11
-16 -8 -21 3 -5 0 -9 -5 -9 -14 0 -14 17 -1 25 6 3 10 13 10 22 0 13 -2 14
-17 2 -16 -13 -17 -12 -4 3 10 14 17 15 33 7 17 -9 18 -8 7 9 -7 11 -20 18
-28 15 -9 -2 -5 2 9 10 14 9 29 13 34 10 5 -4 6 -1 2 5 -4 6 -13 9 -20 6 -8
-3 -17 -1 -21 5 -4 7 3 11 17 11 16 0 19 3 10 9 -8 4 -13 12 -13 17 1 5 -3 9
-9 9 -11 0 -14 20 -2 20 4 0 16 6 27 12 20 12 20 12 -2 10 -12 0 -19 -5 -17
-9 3 -4 -3 -5 -13 -1 -14 6 -13 9 12 19 22 10 25 13 11 14 -11 0 -16 3 -13 7
4 3 0 17 -9 31 -9 13 -11 21 -5 18 6 -4 18 -3 27 2 15 8 15 10 0 15 -12 5 -15
3 -10 -6 5 -9 4 -9 -6 0 -7 6 -20 9 -29 6 -13 -4 -14 -3 -1 5 8 6 17 9 21 7 3
-3 7 7 6 21 0 24 0 24 -21 7 -21 -18 -21 -18 -3 3 9 11 14 24 10 29 -5 4 -2 5
5 1 6 -4 13 -2 13 3 3 26 4 30 12 37 4 4 7 2 7 -4 0 -7 5 -12 12 -12 6 0 4 8
-6 19 -12 14 -14 20 -5 23 7 2 13 12 15 21 1 9 -2 15 -7 11 -5 -3 -7 -10 -4
-15 4 -5 1 -9 -5 -9 -6 0 -13 7 -16 15 -4 8 -10 13 -14 10 -5 -3 -7 3 -5 12 2
10 4 18 5 18 7 0 6 36 -1 41 -5 3 -9 10 -9 17 0 6 6 2 14 -8 7 -10 12 -31 11
-47 -1 -15 1 -28 6 -28 5 0 7 11 5 24 -5 26 15 51 29 38 5 -4 5 -2 1 5 -3 6
-16 10 -27 8 -17 -3 -20 0 -16 15 3 11 0 23 -5 27 -6 3 -8 2 -5 -3 3 -6 -4
-11 -16 -11 -15 -2 -18 0 -8 6 7 5 9 11 5 13 -5 3 -3 3 4 2 6 -2 12 2 12 8 0
7 5 6 15 -2 10 -9 15 -9 15 -1 0 10 -13 15 -32 12 -5 0 -8 5 -8 13 0 8 8 13
18 11 9 -1 12 0 5 2 -7 2 -9 12 -6 21 3 11 -1 8 -11 -5 -10 -13 -22 -23 -27
-23 -6 0 -3 7 6 16 9 9 13 19 10 22 -3 4 -11 0 -16 -8 -9 -13 -10 -13 -6 0 2
8 0 25 -4 38 -6 15 -5 22 4 22 8 0 7 4 -3 10 -8 5 -22 7 -31 5 -20 -7 -43 20
-33 37 6 10 5 11 -8 1 -15 -13 -28 -8 -28 11 0 6 5 4 11 -4 9 -12 10 -12 5 3
-3 10 -6 21 -6 23 0 3 -4 2 -10 -1 -9 -6 -15 8 -11 29 1 5 -6 3 -15 -5 -9 -8
-18 -12 -20 -9 -1 3 -6 1 -11 -4 -4 -5 -3 -7 2 -3 6 3 11 -4 12 -16 0 -12 -1
-16 -4 -9 -3 6 -9 10 -13 7 -5 -3 -7 9 -5 27 3 22 1 28 -4 19 -5 -8 -16 -11
-26 -7 -11 4 -15 2 -12 -6 2 -7 10 -12 16 -10 7 1 10 -2 6 -8 -5 -8 -11 -8
-20 0 -7 6 -20 8 -29 4 -9 -3 -16 -2 -16 3 0 5 -7 10 -15 10 -8 0 -15 -7 -15
-14 0 -8 5 -11 12 -7 7 4 8 3 4 -5 -9 -15 -26 -5 -26 16 0 12 -3 13 -13 4 -8
-6 -17 -8 -21 -4 -17 17 -97 25 -114 10 -13 -9 -14 -9 -8 1 7 11 -5 17 -28 13
-5 -1 -6 6 -2 16 6 17 5 17 -8 1 -16 -22 -26 -23 -26 -3 0 8 -4 15 -10 15 -15
0 1 -30 22 -41 11 -6 18 -7 15 -2 -4 5 0 10 7 10 7 0 13 -6 13 -13 0 -7 -5
-10 -10 -7 -7 4 -8 -1 -4 -13 7 -18 6 -18 -6 -2 -8 10 -17 15 -20 11 -4 -3 -7
-1 -7 5 0 7 -7 12 -15 12 -8 0 -15 -5 -15 -12 0 -6 -3 -8 -6 -5 -4 4 -1 13 6
22 11 13 10 14 -4 9 -13 -5 -15 -2 -10 12 6 18 6 18 -8 1 -8 -11 -21 -18 -29
-16 -24 5 -60 -11 -52 -24 4 -7 -1 -6 -10 2 -18 15 -23 26 -7 16 6 -3 10 -1
10 5 0 7 -6 10 -14 7 -7 -3 -19 0 -27 6 -7 7 -5 -1 5 -16 10 -16 15 -31 12
-35 -3 -3 -6 0 -6 7 0 7 -5 9 -10 6 -6 -4 -8 -11 -5 -16 3 -5 -1 -6 -10 -3
-14 6 -14 8 1 19 15 10 12 12 -17 13 -25 1 -30 -2 -19 -10 12 -8 11 -9 -4 -4
-14 5 -17 2 -12 -11 5 -15 3 -14 -9 2 -9 11 -19 19 -23 18 -4 -2 -7 2 -7 9 0
16 -22 21 -31 7 -4 -8 -3 -9 4 -5 7 4 12 2 12 -4 0 -7 -6 -10 -14 -7 -7 3 -18
1 -24 -5 -7 -7 -16 -6 -30 1 -27 14 -32 14 -28 -1 1 -7 1 -10 -1 -5 -3 4 -10
4 -15 1 -7 -4 -8 -2 -4 4 4 7 1 12 -8 12 -9 0 -16 -6 -16 -12 0 -9 -3 -8 -10
2 -6 9 -21 14 -40 12 -17 -2 -30 1 -30 8 0 6 -5 8 -12 4 -7 -5 -5 -11 7 -21
11 -7 14 -13 9 -13 -6 0 -15 5 -21 11 -12 12 -37 3 -28 -11 3 -5 0 -12 -7 -16
-7 -4 -10 -4 -6 1 9 9 -9 35 -24 35 -5 0 -6 -6 -2 -12 4 -7 4 -10 -1 -6 -4 4
-14 3 -22 -3 -10 -9 -13 -8 -13 0 0 7 -5 9 -12 5 -10 -6 -10 -4 -2 7 11 14 16
54 5 43 -3 -3 -6 -9 -6 -13 0 -4 -7 -15 -17 -24 -14 -15 -17 -15 -22 -1 -3 8
-11 12 -17 8 -8 -4 -7 -9 2 -16 11 -7 9 -8 -5 -4 -14 5 -17 2 -12 -11 5 -15 3
-14 -9 2 -9 11 -19 19 -23 18 -4 -2 -7 2 -7 9 0 16 -22 21 -31 7 -4 -8 -3 -9
4 -5 7 4 12 2 12 -4 0 -7 -6 -10 -14 -7 -7 3 -18 1 -24 -5 -7 -7 -16 -6 -30 1
-15 8 -22 8 -25 -2 -4 -9 -6 -9 -6 1 -1 7 -6 10 -13 6 -7 -4 -8 -3 -4 4 7 11
-6 17 -28 13 -5 -1 -6 6 -2 16 6 17 5 17 -8 1 -16 -22 -26 -23 -26 -3 0 8 -4
15 -10 15 -15 0 1 -30 22 -41 11 -6 18 -7 15 -2 -4 5 0 10 7 10 7 0 13 -6 13
-13 0 -7 -5 -10 -10 -7 -7 4 -8 -1 -4 -13 7 -18 6 -18 -6 -2 -8 10 -17 15 -20
11 -4 -3 -7 -1 -7 5 0 7 -7 12 -15 12 -8 0 -15 -5 -15 -12 0 -6 -3 -8 -6 -5
-4 4 -1 13 6 22 11 13 10 14 -4 9 -13 -5 -15 -2 -10 12 6 18 6 18 -8 1 -8 -11
-21 -18 -29 -16 -21 4 -60 -11 -54 -22 10 -15 -2 -10 -16 8 -10 11 -10 14 -1
9 7 -4 12 -2 12 4 0 7 -6 10 -14 7 -7 -3 -19 0 -27 6 -7 7 -5 -1 5 -16 10 -16
15 -31 12 -35 -3 -3 -6 0 -6 7 0 7 -5 9 -10 6 -6 -4 -8 -11 -5 -16 3 -5 -1 -6
-10 -3 -14 6 -14 8 1 19 15 10 12 12 -17 13 -25 1 -30 -2 -19 -10 12 -8 11 -9
-4 -4 -14 5 -17 2 -12 -11 5 -15 3 -14 -9 2 -9 11 -19 19 -23 18 -4 -2 -7 2
-7 9 0 16 -22 21 -31 7 -4 -8 -3 -9 4 -5 7 4 12 2 12 -4 0 -7 -6 -10 -14 -7
-7 3 -18 1 -24 -5 -7 -7 -16 -6 -30 1 -27 14 -32 14 -28 -1 1 -7 1 -10 -1 -5
-3 4 -10 4 -15 1 -7 -4 -8 -2 -4 4 4 7 1 12 -8 12 -9 0 -16 -6 -16 -12 0 -9
-3 -8 -10 2 -6 9 -21 14 -40 12 -17 -2 -30 1 -30 8 0 6 -5 8 -12 4 -7 -5 -5
-11 7 -21 11 -7 14 -13 9 -13 -6 0 -15 5 -21 11 -12 12 -37 3 -28 -11 3 -5 0
-12 -7 -16 -7 -4 -10 -4 -6 1 9 9 -9 35 -24 35 -5 0 -6 -6 -2 -12 4 -7 4 -10
-1 -6 -4 4 -14 3 -22 -3 -10 -9 -13 -8 -13 0 0 7 -5 9 -12 5 -10 -6 -10 -4 -2
7 11 14 16 54 5 43 -3 -3 -6 -9 -6 -13 0 -4 -7 -15 -17 -24 -14 -15 -17 -15
-22 -1 -3 8 -11 12 -17 8 -8 -4 -7 -9 2 -16 11 -7 9 -8 -5 -4 -14 5 -17 2 -12
-11 5 -15 3 -14 -9 2 -9 11 -19 19 -23 18 -4 -2 -7 2 -7 9 0 16 -22 21 -31 7
-4 -8 -3 -9 4 -5 7 4 12 2 12 -4 0 -7 -6 -10 -14 -7 -7 3 -18 1 -24 -5 -7 -7
-16 -6 -30 1 -15 8 -22 8 -25 -2 -4 -9 -6 -9 -6 1 -1 7 -6 10 -13 6 -7 -4 -8
-3 -4 4 7 11 -6 17 -28 13 -5 -1 -6 6 -2 16 6 17 5 17 -8 1 -16 -22 -26 -23
-26 -3 0 8 -5 15 -10 15 -15 0 6 -36 25 -44 9 -3 14 -2 11 2 -3 5 1 9 8 9 7 0
13 -6 13 -13 0 -7 -5 -10 -10 -7 -7 4 -8 -1 -4 -13 7 -18 6 -18 -6 -2 -8 10
-17 15 -20 11 -4 -3 -7 -1 -7 5 0 7 -7 12 -15 12 -8 0 -15 -5 -15 -12 0 -6 -3
-8 -6 -5 -4 4 -1 13 6 22 11 13 10 14 -4 9 -13 -5 -15 -2 -10 12 6 18 6 18 -8
1 -8 -11 -21 -18 -29 -16 -24 5 -60 -11 -52 -24 4 -7 -1 -6 -10 2 -18 15 -23
26 -7 16 6 -3 10 -1 10 5 0 7 -6 10 -14 7 -7 -3 -19 0 -27 6 -7 7 -5 -1 5 -16
10 -16 15 -31 12 -35 -3 -3 -6 0 -6 7 0 7 -5 9 -10 6 -6 -4 -8 -11 -5 -16 3
-5 -1 -6 -10 -3 -14 6 -14 8 1 19 15 10 12 12 -17 13 -25 1 -30 -2 -19 -10 12
-8 11 -9 -4 -4 -14 5 -17 2 -12 -11 5 -15 3 -14 -9 2 -9 11 -19 19 -23 18 -4
-2 -7 2 -7 9 0 16 -22 21 -31 7 -4 -8 -3 -9 4 -5 7 4 12 2 12 -4 0 -7 -6 -10
-14 -7 -7 3 -18 1 -24 -5 -7 -7 -16 -6 -30 1 -27 14 -32 14 -28 -1 1 -7 1 -10
-1 -5 -3 4 -10 4 -15 1 -7 -4 -8 -2 -4 4 4 7 1 12 -8 12 -9 0 -16 -6 -16 -12
0 -9 -3 -8 -10 2 -6 9 -21 14 -40 12 -17 -2 -30 1 -30 8 0 6 -5 8 -12 4 -7 -5
-5 -11 7 -21 11 -7 14 -13 9 -13 -6 0 -15 5 -21 11 -12 12 -37 3 -28 -11 3 -5
0 -12 -7 -16 -7 -4 -10 -4 -6 1 9 9 -9 35 -24 35 -5 0 -6 -6 -2 -12 4 -7 4
-10 -1 -6 -4 4 -14 3 -22 -3 -10 -9 -13 -8 -13 0 0 7 -5 9 -12 5 -10 -6 -10
-4 -2 7 11 14 16 54 5 43 -3 -3 -6 -9 -6 -13 0 -4 -7 -15 -17 -24 -14 -15 -17
-15 -22 -1 -3 8 -11 12 -17 8 -8 -4 -7 -9 2 -16 11 -7 9 -8 -5 -4 -14 5 -17 2
-12 -11 5 -15 3 -14 -9 2 -9 11 -19 19 -23 18 -4 -2 -7 2 -7 9 0 16 -22 21
-31 7 -4 -8 -3 -9 4 -5 7 4 12 2 12 -4 0 -7 -6 -10 -14 -7 -7 3 -18 1 -24 -5
-7 -7 -16 -6 -30 1 -15 8 -22 8 -25 -2 -4 -9 -6 -9 -6 1 -1 7 -6 10 -13 6 -7
-4 -8 -3 -4 4 7 11 -6 17 -28 13 -5 -1 -6 6 -2 16 6 17 5 17 -8 1 -16 -22 -26
-23 -26 -3 0 8 -5 15 -10 15 -15 0 6 -36 25 -44 9 -3 14 -2 11 2 -3 5 1 9 8 9
7 0 13 -6 13 -13 0 -7 -5 -10 -10 -7 -7 4 -8 -1 -4 -13 7 -18 6 -18 -6 -2 -8
10 -17 15 -20 11 -4 -3 -7 -1 -7 5 0 7 -7 12 -15 12 -8 0 -15 -5 -15 -12 0 -6
-3 -8 -6 -5 -4 4 -1 13 6 22 11 13 10 14 -4 9 -13 -5 -15 -2 -10 12 6 18 6 18
-8 1 -8 -11 -21 -18 -29 -16 -21 4 -60 -11 -54 -22 10 -15 -2 -10 -16 8 -10
11 -10 14 -1 9 7 -4 12 -2 12 4 0 7 -6 10 -14 7 -7 -3 -19 0 -27 6 -7 7 -5 -1
5 -16 10 -16 15 -31 12 -35 -3 -3 -6 0 -6 7 0 7 -5 9 -10 6 -6 -4 -8 -11 -5
-16 3 -5 -1 -6 -10 -3 -14 6 -14 8 1 19 15 10 12 12 -17 13 -25 1 -30 -2 -19
-10 12 -8 11 -9 -4 -4 -14 5 -17 2 -12 -11 5 -15 3 -14 -9 2 -9 11 -19 19 -23
18 -4 -2 -7 2 -7 9 0 16 -22 21 -31 7 -4 -8 -3 -9 4 -5 7 4 12 2 12 -4 0 -7
-6 -10 -14 -7 -7 3 -18 1 -24 -5 -7 -7 -16 -6 -30 1 -27 14 -32 14 -28 -1 1
-7 1 -10 -1 -5 -3 4 -10 4 -15 1 -7 -4 -8 -2 -4 4 4 7 1 12 -8 12 -9 0 -16 -6
-16 -12 0 -9 -3 -8 -10 2 -6 9 -21 14 -40 12 -17 -2 -30 1 -30 8 0 6 -5 8 -12
4 -7 -5 -5 -11 7 -21 11 -7 14 -13 9 -13 -6 0 -15 5 -21 11 -6 6 -17 8 -24 3
-19 -12 -59 -14 -59 -3 0 5 -4 9 -10 9 -5 0 -8 -6 -6 -12 1 -7 1 -10 -1 -5 -3
4 -10 4 -15 1 -7 -4 -8 -2 -4 4 4 7 1 12 -8 12 -9 0 -16 -5 -16 -12 0 -6 -6
-3 -14 7 -12 17 -12 21 3 32 22 17 12 16 -19 -2z m615 -25 c-3 -5 -12 -10 -18
-10 -7 0 -6 4 3 10 19 12 23 12 15 0z m42 -4 c0 -8 -6 -12 -15 -9 -11 5 -11 7
0 14 7 5 13 9 14 9 0 0 1 -6 1 -14z m918 4 c-3 -5 -12 -10 -18 -10 -7 0 -6 4
3 10 19 12 23 12 15 0z m42 -4 c0 -8 -6 -12 -15 -9 -11 5 -11 7 0 14 7 5 13 9
14 9 0 0 1 -6 1 -14z m918 4 c-3 -5 -12 -10 -18 -10 -7 0 -6 4 3 10 19 12 23
12 15 0z m42 -4 c0 -8 -6 -12 -15 -9 -11 5 -11 7 0 14 7 5 13 9 14 9 0 0 1 -6
1 -14z m918 4 c-3 -5 -12 -10 -18 -10 -7 0 -6 4 3 10 19 12 23 12 15 0z m42
-4 c0 -8 -6 -12 -15 -9 -11 5 -11 7 0 14 7 5 13 9 14 9 0 0 1 -6 1 -14z
m-3570 -15 c0 -11 -5 -18 -9 -15 -4 3 -5 11 -1 19 7 21 12 19 10 -4z m3757 9
c2 -3 -9 -6 -25 -6 -16 -1 -29 2 -29 6 0 7 46 7 54 0z m266 -40 c0 -13 -1 -13
-10 0 -5 8 -10 22 -10 30 0 13 1 13 10 0 5 -8 10 -22 10 -30z m-3370 26 c0 -2
-7 -6 -15 -10 -8 -3 -15 -1 -15 4 0 6 7 10 15 10 8 0 15 -2 15 -4z m960 0 c0
-2 -7 -6 -15 -10 -8 -3 -15 -1 -15 4 0 6 7 10 15 10 8 0 15 -2 15 -4z m960 0
c0 -2 -7 -6 -15 -10 -8 -3 -15 -1 -15 4 0 6 7 10 15 10 8 0 15 -2 15 -4z m960
0 c0 -2 -7 -6 -15 -10 -8 -3 -15 -1 -15 4 0 6 7 10 15 10 8 0 15 -2 15 -4z
m470 -46 c0 -5 -2 -10 -4 -10 -3 0 -8 5 -11 10 -3 6 -1 10 4 10 6 0 11 -4 11
-10z m110 -40 c-8 -5 -19 -10 -25 -10 -5 0 -3 5 5 10 8 5 20 10 25 10 6 0 3
-5 -5 -10z m6 -34 c0 -14 -3 -23 -7 -20 -6 3 -6 22 0 42 3 10 7 -2 7 -22z
m-4356 -17 c0 -5 -4 -7 -10 -4 -5 3 -10 -1 -10 -9 0 -9 -4 -16 -10 -16 -12 0
-9 22 5 32 14 11 25 10 25 -3z m4400 -154 c0 -5 -5 -3 -10 5 -5 8 -10 20 -10
25 0 6 5 3 10 -5 5 -8 10 -19 10 -25z m3 -82 c-6 -16 -4 -16 9 -5 14 11 16 10
14 -4 -2 -10 -7 -19 -13 -21 -12 -4 -26 25 -17 38 9 15 14 10 7 -8z m-4432
-26 c-10 -9 -11 -8 -5 6 3 10 9 15 12 12 3 -3 0 -11 -7 -18z m-4 -63 c-3 -3
-12 -4 -19 -1 -8 3 -5 6 6 6 11 1 17 -2 13 -5z m4449 -119 c1 -8 -2 -15 -6
-15 -5 0 -8 9 -7 20 1 21 10 18 13 -5z m-4426 -45 c-8 -5 -19 -10 -25 -10 -5
0 -3 5 5 10 8 5 20 10 25 10 6 0 3 -5 -5 -10z m4430 -44 c-4 -4 -16 -4 -26 2
-16 9 -14 10 8 9 15 -1 23 -6 18 -11z m-6 -45 c-3 -3 -15 6 -27 18 l-22 24 27
-19 c14 -10 24 -21 22 -23z m-4444 -25 c0 -3 -4 -8 -10 -11 -5 -3 -10 -1 -10
4 0 6 5 11 10 11 6 0 10 -2 10 -4z m-10 -105 c0 -6 -4 -12 -8 -15 -5 -3 -9 1
-9 9 0 8 4 15 9 15 4 0 8 -4 8 -9z m11 -34 c-10 -9 -11 -8 -5 6 3 10 9 15 12
12 3 -3 0 -11 -7 -18z m4443 -46 c3 -4 -4 -17 -17 -27 -22 -19 -22 -19 -4 2 9
11 14 24 10 27 -3 4 -4 7 0 7 3 0 8 -4 11 -9z m-17 -196 c0 -8 -4 -12 -9 -9
-5 3 -6 10 -3 15 9 13 12 11 12 -6z m-4437 -204 c0 -6 -4 -12 -8 -15 -5 -3 -9
1 -9 9 0 8 4 15 9 15 4 0 8 -4 8 -9z m11 -34 c-10 -9 -11 -8 -5 6 3 10 9 15
12 12 3 -3 0 -11 -7 -18z m-4 -63 c-3 -3 -12 -4 -19 -1 -8 3 -5 6 6 6 11 1 17
-2 13 -5z m4449 -119 c1 -8 -2 -15 -6 -15 -5 0 -8 9 -7 20 1 21 10 18 13 -5z
m-4426 -45 c-8 -5 -19 -10 -25 -10 -5 0 -3 5 5 10 8 5 20 10 25 10 6 0 3 -5
-5 -10z m4430 -44 c-4 -4 -16 -4 -26 2 -16 9 -14 10 8 9 15 -1 23 -6 18 -11z
m-6 -45 c-3 -3 -15 6 -27 18 l-22 24 27 -19 c14 -10 24 -21 22 -23z m-4444
-25 c0 -3 -4 -8 -10 -11 -5 -3 -10 -1 -10 4 0 6 5 11 10 11 6 0 10 -2 10 -4z
m4425 -5 c3 -5 2 -12 -3 -15 -5 -3 -9 1 -9 9 0 17 3 19 12 6z m-4435 -100 c0
-6 -4 -12 -8 -15 -5 -3 -9 1 -9 9 0 8 4 15 9 15 4 0 8 -4 8 -9z m11 -34 c-10
-9 -11 -8 -5 6 3 10 9 15 12 12 3 -3 0 -11 -7 -18z m4427 -172 c-3 -3 -9 2
-12 12 -6 14 -5 15 5 6 7 -7 10 -15 7 -18z m-4438 -274 c0 -6 -4 -12 -8 -15
-5 -3 -9 1 -9 9 0 8 4 15 9 15 4 0 8 -4 8 -9z m11 -34 c-10 -9 -11 -8 -5 6 3
10 9 15 12 12 3 -3 0 -11 -7 -18z m4427 -12 c-3 -3 -9 2 -12 12 -6 14 -5 15 5
6 7 -7 10 -15 7 -18z m-4431 -51 c-3 -3 -12 -4 -19 -1 -8 3 -5 6 6 6 11 1 17
-2 13 -5z m4449 -119 c1 -8 -2 -15 -6 -15 -5 0 -8 9 -7 20 1 21 10 18 13 -5z
m-4426 -45 c-8 -5 -19 -10 -25 -10 -5 0 -3 5 5 10 8 5 20 10 25 10 6 0 3 -5
-5 -10z m4430 -44 c-4 -4 -16 -4 -26 2 -16 9 -14 10 8 9 15 -1 23 -6 18 -11z
m-6 -45 c-3 -3 -15 6 -27 18 l-22 24 27 -19 c14 -10 24 -21 22 -23z m-4444
-25 c0 -3 -4 -8 -10 -11 -5 -3 -10 -1 -10 4 0 6 5 11 10 11 6 0 10 -2 10 -4z
m-10 -105 c0 -6 -4 -12 -8 -15 -5 -3 -9 1 -9 9 0 8 4 15 9 15 4 0 8 -4 8 -9z
m11 -34 c-10 -9 -11 -8 -5 6 3 10 9 15 12 12 3 -3 0 -11 -7 -18z m4443 -46 c3
-4 -4 -17 -17 -27 -22 -19 -22 -19 -4 2 9 11 14 24 10 27 -3 4 -4 7 0 7 3 0 8
-4 11 -9z m-17 -196 c0 -8 -4 -12 -9 -9 -5 3 -6 10 -3 15 9 13 12 11 12 -6z
m-4437 -204 c0 -6 -4 -12 -8 -15 -5 -3 -9 1 -9 9 0 8 4 15 9 15 4 0 8 -4 8 -9z
m11 -34 c-10 -9 -11 -8 -5 6 3 10 9 15 12 12 3 -3 0 -11 -7 -18z m-4 -63 c-3
-3 -12 -4 -19 -1 -8 3 -5 6 6 6 11 1 17 -2 13 -5z m4449 -119 c1 -8 -2 -15 -6
-15 -5 0 -8 9 -7 20 1 21 10 18 13 -5z m-4426 -45 c-8 -5 -19 -10 -25 -10 -5
0 -3 5 5 10 8 5 20 10 25 10 6 0 3 -5 -5 -10z m4430 -44 c-4 -4 -16 -4 -26 2
-16 9 -14 10 8 9 15 -1 23 -6 18 -11z m-6 -45 c-3 -3 -15 6 -27 18 l-22 24 27
-19 c14 -10 24 -21 22 -23z m-4444 -25 c0 -3 -4 -8 -10 -11 -5 -3 -10 -1 -10
4 0 6 5 11 10 11 6 0 10 -2 10 -4z m4425 -5 c3 -5 2 -12 -3 -15 -5 -3 -9 1 -9
9 0 17 3 19 12 6z m-4435 -100 c0 -6 -4 -12 -8 -15 -5 -3 -9 1 -9 9 0 8 4 15
9 15 4 0 8 -4 8 -9z m11 -34 c-10 -9 -11 -8 -5 6 3 10 9 15 12 12 3 -3 0 -11
-7 -18z m4427 -172 c-3 -3 -9 2 -12 12 -6 14 -5 15 5 6 7 -7 10 -15 7 -18z
m-4387 -389 c5 3 9 2 8 -3 -3 -20 2 -34 11 -28 6 3 10 1 10 -5 0 -6 6 -8 13
-4 6 4 9 3 4 -1 -10 -11 -48 -14 -41 -4 3 5 -4 17 -14 27 -10 10 -16 25 -13
33 4 11 6 10 9 -4 2 -9 8 -15 13 -11z m4284 -35 c3 -5 2 -12 -3 -15 -5 -3 -9
1 -9 9 0 17 3 19 12 6z m-4085 -75 c-7 -7 -13 -7 -20 0 -6 6 -3 10 10 10 13 0
16 -4 10 -10z m37 -8 c-3 -8 -6 -5 -6 6 -1 11 2 17 5 13 3 -3 4 -12 1 -19z
m34 9 c-6 -8 -8 -16 -5 -19 2 -3 -2 -8 -11 -12 -11 -4 -14 -2 -9 7 11 20 26
37 31 37 3 0 0 -6 -6 -13z m94 3 c3 -5 1 -10 -4 -10 -6 0 -11 5 -11 10 0 6 2
10 4 10 3 0 8 -4 11 -10z m349 1 c3 -5 -1 -11 -9 -14 -9 -4 -12 -1 -8 9 6 16
10 17 17 5z m106 5 c0 -2 -8 -10 -17 -17 -16 -13 -17 -12 -4 4 13 16 21 21 21
13z m50 0 c0 -3 -4 -8 -10 -11 -5 -3 -10 -1 -10 4 0 6 5 11 10 11 6 0 10 -2
10 -4z m46 -5 c-6 -9 -46 -22 -46 -15 0 3 10 9 23 14 29 11 29 11 23 1z m438
0 c3 -5 -1 -11 -9 -14 -9 -4 -12 -1 -8 9 6 16 10 17 17 5z m106 5 c0 -2 -8
-10 -17 -17 -16 -13 -17 -12 -4 4 13 16 21 21 21 13z m50 0 c0 -3 -4 -8 -10
-11 -5 -3 -10 -1 -10 4 0 6 5 11 10 11 6 0 10 -2 10 -4z m46 -5 c-6 -9 -46
-22 -46 -15 0 3 10 9 23 14 29 11 29 11 23 1z m438 0 c3 -5 -1 -11 -9 -14 -9
-4 -12 -1 -8 9 6 16 10 17 17 5z m106 5 c0 -2 -8 -10 -17 -17 -16 -13 -17 -12
-4 4 13 16 21 21 21 13z m50 0 c0 -3 -4 -8 -10 -11 -5 -3 -10 -1 -10 4 0 6 5
11 10 11 6 0 10 -2 10 -4z m46 -5 c-6 -9 -46 -22 -46 -15 0 3 10 9 23 14 29
11 29 11 23 1z m438 0 c3 -5 -1 -11 -9 -14 -9 -4 -12 -1 -8 9 6 16 10 17 17 5z
m106 5 c0 -2 -8 -10 -17 -17 -16 -13 -17 -12 -4 4 13 16 21 21 21 13z m50 0
c0 -3 -4 -8 -10 -11 -5 -3 -10 -1 -10 4 0 6 5 11 10 11 6 0 10 -2 10 -4z m46
-5 c-6 -9 -46 -22 -46 -15 0 3 10 9 23 14 29 11 29 11 23 1z m438 0 c3 -5 -1
-11 -9 -14 -9 -4 -12 -1 -8 9 6 16 10 17 17 5z m106 5 c0 -2 -8 -10 -17 -17
-16 -13 -17 -12 -4 4 13 16 21 21 21 13z m50 0 c0 -3 -4 -8 -10 -11 -5 -3 -10
-1 -10 4 0 6 5 11 10 11 6 0 10 -2 10 -4z m46 -5 c-6 -9 -46 -22 -46 -15 0 3
10 9 23 14 29 11 29 11 23 1z m438 0 c3 -5 -1 -11 -9 -14 -9 -4 -12 -1 -8 9 6
16 10 17 17 5z m-3284 -21 c0 -5 -4 -10 -10 -10 -5 0 -10 5 -10 10 0 6 5 10
10 10 6 0 10 -4 10 -10z m640 0 c0 -5 -4 -10 -10 -10 -5 0 -10 5 -10 10 0 6 5
10 10 10 6 0 10 -4 10 -10z m640 0 c0 -5 -4 -10 -10 -10 -5 0 -10 5 -10 10 0
6 5 10 10 10 6 0 10 -4 10 -10z m640 0 c0 -5 -4 -10 -10 -10 -5 0 -10 5 -10
10 0 6 5 10 10 10 6 0 10 -4 10 -10z m640 0 c0 -5 -4 -10 -10 -10 -5 0 -10 5
-10 10 0 6 5 10 10 10 6 0 10 -4 10 -10z m640 0 c0 -5 -4 -10 -10 -10 -5 0
-10 5 -10 10 0 6 5 10 10 10 6 0 10 -4 10 -10z"/>
<path d="M535 4620 c-8 -13 4 -32 16 -25 5 4 15 3 21 -1 23 -15 48 -11 65 9
10 11 13 17 6 14 -6 -4 -13 -4 -16 0 -2 5 -2 3 -1 -4 2 -7 -1 -15 -6 -18 -6
-4 -10 -1 -10 4 0 6 -6 10 -12 9 -7 -2 -12 3 -10 10 1 6 -2 12 -8 12 -5 0 -10
-4 -10 -9 0 -5 -7 -12 -16 -15 -12 -4 -15 -2 -10 9 6 17 0 20 -9 5z"/>
<path d="M685 4619 c-11 -16 -1 -19 13 -3 7 8 8 14 3 14 -5 0 -13 -5 -16 -11z"/>
<path d="M730 4620 c-9 -6 -10 -10 -3 -10 6 0 15 5 18 10 8 12 4 12 -15 0z"/>
<path d="M775 4619 c-4 -6 -4 -13 -1 -17 10 -10 46 -9 46 1 0 5 -9 7 -21 4
-15 -4 -19 -2 -15 9 6 16 0 19 -9 3z"/>
<path d="M829 4617 c5 -5 7 -16 4 -23 -9 -25 14 -15 32 14 10 15 12 21 4 15
-15 -15 -33 -18 -25 -5 3 5 -2 9 -10 9 -9 0 -11 -4 -5 -10z"/>
<path d="M918 4604 c9 -12 21 -19 26 -16 5 3 2 10 -7 17 -9 7 -15 14 -12 17 3
2 -1 5 -9 5 -12 0 -11 -5 2 -23z"/>
<path d="M950 4621 c0 -5 5 -13 10 -16 6 -3 10 -2 10 4 0 5 -4 13 -10 16 -5 3
-10 2 -10 -4z"/>
<path d="M1055 4620 c3 -5 11 -10 16 -10 6 0 7 5 4 10 -3 6 -11 10 -16 10 -6
0 -7 -4 -4 -10z"/>
<path d="M1255 4620 c-3 -5 -1 -10 4 -10 6 0 11 5 11 10 0 6 -2 10 -4 10 -3 0
-8 -4 -11 -10z"/>
<path d="M1309 4617 c5 -5 7 -16 4 -23 -9 -25 14 -15 32 14 10 15 12 21 4 15
-15 -15 -33 -18 -25 -5 3 5 -2 9 -10 9 -9 0 -11 -4 -5 -10z"/>
<path d="M1398 4604 c9 -12 21 -19 26 -16 5 3 2 10 -7 17 -9 7 -15 14 -12 17
3 2 -1 5 -9 5 -12 0 -11 -5 2 -23z"/>
<path d="M1430 4618 c0 -4 6 -8 14 -8 8 0 17 4 20 8 2 4 -4 8 -15 8 -10 0 -19
-4 -19 -8z"/>
<path d="M1530 4620 c0 -5 0 -13 1 -16 0 -4 -5 -11 -13 -15 -9 -6 -9 -9 -1 -9
13 0 26 17 29 38 1 6 -2 12 -7 12 -5 0 -9 -4 -9 -10z"/>
<path d="M1570 4615 c-9 -11 -10 -19 -3 -26 6 -6 16 -2 29 13 l19 23 -22 -19
c-24 -20 -32 -9 -11 12 7 7 9 12 6 12 -3 0 -11 -7 -18 -15z"/>
<path d="M1645 4619 c-11 -16 -1 -19 13 -3 7 8 8 14 3 14 -5 0 -13 -5 -16 -11z"/>
<path d="M1690 4620 c-9 -6 -10 -10 -3 -10 6 0 15 5 18 10 8 12 4 12 -15 0z"/>
<path d="M1735 4619 c-4 -6 -4 -13 -1 -17 10 -10 46 -9 46 1 0 5 -9 7 -21 4
-15 -4 -19 -2 -15 9 6 16 0 19 -9 3z"/>
<path d="M1789 4617 c5 -5 7 -16 4 -23 -9 -25 14 -15 32 14 10 15 12 21 4 15
-15 -15 -33 -18 -25 -5 3 5 -2 9 -10 9 -9 0 -11 -4 -5 -10z"/>
<path d="M1878 4604 c9 -12 21 -19 26 -16 5 3 2 10 -7 17 -9 7 -15 14 -12 17
3 2 -1 5 -9 5 -12 0 -11 -5 2 -23z"/>
<path d="M1910 4621 c0 -5 5 -13 10 -16 6 -3 10 -2 10 4 0 5 -4 13 -10 16 -5
3 -10 2 -10 -4z"/>
<path d="M2015 4620 c3 -5 11 -10 16 -10 6 0 7 5 4 10 -3 6 -11 10 -16 10 -6
0 -7 -4 -4 -10z"/>
<path d="M2215 4620 c-3 -5 -1 -10 4 -10 6 0 11 5 11 10 0 6 -2 10 -4 10 -3 0
-8 -4 -11 -10z"/>
<path d="M2269 4617 c5 -5 7 -16 4 -23 -9 -25 14 -15 32 14 10 15 12 21 4 15
-15 -15 -33 -18 -25 -5 3 5 -2 9 -10 9 -9 0 -11 -4 -5 -10z"/>
<path d="M2358 4604 c9 -12 21 -19 26 -16 5 3 2 10 -7 17 -9 7 -15 14 -12 17
3 2 -1 5 -9 5 -12 0 -11 -5 2 -23z"/>
<path d="M2390 4618 c0 -4 6 -8 14 -8 8 0 17 4 20 8 2 4 -4 8 -15 8 -10 0 -19
-4 -19 -8z"/>
<path d="M2490 4620 c0 -5 0 -13 1 -16 0 -4 -5 -11 -13 -15 -9 -6 -9 -9 -1 -9
13 0 26 17 29 38 1 6 -2 12 -7 12 -5 0 -9 -4 -9 -10z"/>
<path d="M2530 4615 c-9 -11 -10 -19 -3 -26 6 -6 16 -2 29 13 l19 23 -22 -19
c-24 -20 -32 -9 -11 12 7 7 9 12 6 12 -3 0 -11 -7 -18 -15z"/>
<path d="M2605 4619 c-11 -16 -1 -19 13 -3 7 8 8 14 3 14 -5 0 -13 -5 -16 -11z"/>
<path d="M2650 4620 c-9 -6 -10 -10 -3 -10 6 0 15 5 18 10 8 12 4 12 -15 0z"/>
<path d="M2695 4619 c-4 -6 -4 -13 -1 -17 10 -10 46 -9 46 1 0 5 -9 7 -21 4
-15 -4 -19 -2 -15 9 6 16 0 19 -9 3z"/>
<path d="M2749 4617 c5 -5 7 -16 4 -23 -9 -25 14 -15 32 14 10 15 12 21 4 15
-15 -15 -33 -18 -25 -5 3 5 -2 9 -10 9 -9 0 -11 -4 -5 -10z"/>
<path d="M2838 4604 c9 -12 21 -19 26 -16 5 3 2 10 -7 17 -9 7 -15 14 -12 17
3 2 -1 5 -9 5 -12 0 -11 -5 2 -23z"/>
<path d="M2870 4621 c0 -5 5 -13 10 -16 6 -3 10 -2 10 4 0 5 -4 13 -10 16 -5
3 -10 2 -10 -4z"/>
<path d="M2975 4620 c3 -5 11 -10 16 -10 6 0 7 5 4 10 -3 6 -11 10 -16 10 -6
0 -7 -4 -4 -10z"/>
<path d="M3175 4620 c-3 -5 -1 -10 4 -10 6 0 11 5 11 10 0 6 -2 10 -4 10 -3 0
-8 -4 -11 -10z"/>
<path d="M3229 4617 c5 -5 7 -16 4 -23 -9 -25 14 -15 32 14 10 15 12 21 4 15
-15 -15 -33 -18 -25 -5 3 5 -2 9 -10 9 -9 0 -11 -4 -5 -10z"/>
<path d="M3318 4604 c9 -12 21 -19 26 -16 5 3 2 10 -7 17 -9 7 -15 14 -12 17
3 2 -1 5 -9 5 -12 0 -11 -5 2 -23z"/>
<path d="M3350 4618 c0 -4 6 -8 14 -8 8 0 17 4 20 8 2 4 -4 8 -15 8 -10 0 -19
-4 -19 -8z"/>
<path d="M3450 4620 c0 -5 0 -13 1 -16 0 -4 -5 -11 -13 -15 -9 -6 -9 -9 -1 -9
13 0 26 17 29 38 1 6 -2 12 -7 12 -5 0 -9 -4 -9 -10z"/>
<path d="M3490 4615 c-9 -11 -10 -19 -3 -26 6 -6 16 -2 29 13 l19 23 -22 -19
c-24 -20 -32 -9 -11 12 7 7 9 12 6 12 -3 0 -11 -7 -18 -15z"/>
<path d="M3565 4619 c-11 -16 -1 -19 13 -3 7 8 8 14 3 14 -5 0 -13 -5 -16 -11z"/>
<path d="M3610 4620 c-9 -6 -10 -10 -3 -10 6 0 15 5 18 10 8 12 4 12 -15 0z"/>
<path d="M3655 4619 c-4 -6 -4 -13 -1 -17 10 -10 46 -9 46 1 0 5 -9 7 -21 4
-15 -4 -19 -2 -15 9 6 16 0 19 -9 3z"/>
<path d="M3709 4617 c5 -5 7 -16 4 -23 -9 -25 14 -15 32 14 10 15 12 21 4 15
-15 -15 -33 -18 -25 -5 3 5 -2 9 -10 9 -9 0 -11 -4 -5 -10z"/>
<path d="M3798 4604 c9 -12 21 -19 26 -16 5 3 2 10 -7 17 -9 7 -15 14 -12 17
3 2 -1 5 -9 5 -12 0 -11 -5 2 -23z"/>
<path d="M3830 4621 c0 -5 5 -13 10 -16 6 -3 10 -2 10 4 0 5 -4 13 -10 16 -5
3 -10 2 -10 -4z"/>
<path d="M3935 4620 c3 -5 11 -10 16 -10 6 0 7 5 4 10 -3 6 -11 10 -16 10 -6
0 -7 -4 -4 -10z"/>
<path d="M4135 4620 c-3 -5 -1 -10 4 -10 6 0 11 5 11 10 0 6 -2 10 -4 10 -3 0
-8 -4 -11 -10z"/>
<path d="M4175 4620 c-3 -5 -1 -10 4 -10 6 0 11 5 11 10 0 6 -2 10 -4 10 -3 0
-8 -4 -11 -10z"/>
<path d="M4210 4616 c7 -7 13 -7 20 0 6 6 3 10 -10 10 -13 0 -16 -4 -10 -10z"/>
<path d="M4245 4608 c-11 -12 -15 -18 -8 -14 6 3 15 2 18 -4 5 -8 11 -8 19 -1
7 6 15 9 17 6 3 -2 11 5 18 17 12 20 11 20 -19 -2 l-32 -23 7 22 c8 26 6 26
-20 -1z"/>
<path d="M4340 4612 c0 -7 -4 -11 -9 -7 -5 3 -13 0 -17 -7 -4 -7 -4 -10 1 -6
4 4 14 3 21 -3 16 -13 26 2 13 21 -6 11 -9 12 -9 2z"/>
<path d="M1276 4602 c-3 -5 1 -9 9 -9 8 0 15 4 15 9 0 4 -4 8 -9 8 -6 0 -12
-4 -15 -8z"/>
<path d="M2236 4602 c-3 -5 1 -9 9 -9 8 0 15 4 15 9 0 4 -4 8 -9 8 -6 0 -12
-4 -15 -8z"/>
<path d="M3196 4602 c-3 -5 1 -9 9 -9 8 0 15 4 15 9 0 4 -4 8 -9 8 -6 0 -12
-4 -15 -8z"/>
<path d="M4532 4545 c4 -4 3 -14 -3 -21 -13 -16 1 -24 26 -13 18 7 18 8 2 8
-10 1 -16 5 -12 10 3 5 0 13 -7 17 -7 4 -10 4 -6 -1z"/>
<path d="M115 4240 c-3 -5 -1 -10 4 -10 6 0 11 5 11 10 0 6 -2 10 -4 10 -3 0
-8 -4 -11 -10z"/>
<path d="M4635 4120 c-3 -5 -1 -10 4 -10 6 0 11 5 11 10 0 6 -2 10 -4 10 -3 0
-8 -4 -11 -10z"/>
<path d="M4635 4090 c-3 -5 -1 -10 4 -10 6 0 11 5 11 10 0 6 -2 10 -4 10 -3 0
-8 -4 -11 -10z"/>
<path d="M130 4025 c0 -8 4 -15 10 -15 5 0 7 7 4 15 -4 8 -8 15 -10 15 -2 0
-4 -7 -4 -15z"/>
<path d="M4646 4022 c-3 -5 1 -9 9 -9 8 0 12 4 9 9 -3 4 -7 8 -9 8 -2 0 -6 -4
-9 -8z"/>
<path d="M4630 3703 c0 -5 5 -15 10 -23 7 -12 9 -10 7 8 -1 19 -17 33 -17 15z"/>
<path d="M120 3619 c-7 -11 -9 -23 -7 -26 3 -2 8 5 12 16 3 12 11 18 17 15 7
-4 8 -2 4 4 -10 16 -14 15 -26 -9z"/>
<path d="M136 3601 c-3 -5 1 -11 9 -15 8 -3 15 -1 15 4 0 13 -18 22 -24 11z"/>
<path d="M4638 3603 c7 -3 16 -2 19 1 4 3 -2 6 -13 5 -11 0 -14 -3 -6 -6z"/>
<path d="M4640 3580 c-13 -8 -12 -10 3 -10 9 0 17 5 17 10 0 12 -1 12 -20 0z"/>
<path d="M130 3545 c0 -8 4 -15 10 -15 5 0 7 7 4 15 -4 8 -8 15 -10 15 -2 0
-4 -7 -4 -15z"/>
<path d="M4640 3460 c-12 -7 -10 -9 7 -7 12 0 19 5 17 9 -6 10 -6 10 -24 -2z"/>
<path d="M144 3453 c4 -7 2 -13 -3 -13 -16 0 -13 -27 2 -33 16 -6 17 37 3 50
-5 4 -6 2 -2 -4z"/>
<path d="M4637 3346 c-3 -8 0 -17 7 -19 10 -4 12 1 9 14 -6 23 -9 24 -16 5z"/>
<path d="M4630 3223 c0 -5 5 -15 10 -23 7 -12 9 -10 7 8 -1 19 -17 33 -17 15z"/>
<path d="M4635 3160 c-3 -5 -1 -10 4 -10 6 0 11 5 11 10 0 6 -2 10 -4 10 -3 0
-8 -4 -11 -10z"/>
<path d="M4635 3130 c-3 -5 -1 -10 4 -10 6 0 11 5 11 10 0 6 -2 10 -4 10 -3 0
-8 -4 -11 -10z"/>
<path d="M130 3065 c0 -8 4 -15 10 -15 5 0 7 7 4 15 -4 8 -8 15 -10 15 -2 0
-4 -7 -4 -15z"/>
<path d="M4646 3062 c-3 -5 1 -9 9 -9 8 0 12 4 9 9 -3 4 -7 8 -9 8 -2 0 -6 -4
-9 -8z"/>
<path d="M4655 2850 c6 -10 4 -12 -8 -7 -9 3 -19 2 -22 -3 -9 -15 11 -20 30
-6 14 10 15 15 5 21 -9 6 -11 4 -5 -5z"/>
<path d="M4635 2730 c3 -5 8 -10 11 -10 2 0 4 5 4 10 0 6 -5 10 -11 10 -5 0
-7 -4 -4 -10z"/>
<path d="M4626 2681 c-4 -5 3 -7 14 -4 23 6 26 13 6 13 -8 0 -17 -4 -20 -9z"/>
<path d="M120 2659 c-7 -11 -9 -23 -7 -26 3 -2 8 5 12 16 3 12 11 18 17 15 7
-4 8 -2 4 4 -10 16 -14 15 -26 -9z"/>
<path d="M136 2641 c-3 -5 1 -11 9 -15 8 -3 15 -1 15 4 0 13 -18 22 -24 11z"/>
<path d="M130 2585 c0 -8 4 -15 10 -15 5 0 7 7 4 15 -4 8 -8 15 -10 15 -2 0
-4 -7 -4 -15z"/>
<path d="M4646 2538 c17 -19 17 -21 2 -15 -18 6 -35 -8 -20 -17 12 -7 35 10
38 28 1 9 -2 14 -7 10 -5 -3 -9 0 -9 5 0 6 -5 11 -12 11 -6 0 -3 -10 8 -22z"/>
<path d="M144 2493 c4 -7 2 -13 -3 -13 -16 0 -13 -27 2 -33 16 -6 17 37 3 50
-5 4 -6 2 -2 -4z"/>
<path d="M4635 2410 c3 -5 8 -10 11 -10 2 0 4 5 4 10 0 6 -5 10 -11 10 -5 0
-7 -4 -4 -10z"/>
<path d="M4626 2361 c-4 -5 3 -7 14 -4 23 6 26 13 6 13 -8 0 -17 -4 -20 -9z"/>
<path d="M4635 2230 c3 -5 8 -10 11 -10 2 0 4 5 4 10 0 6 -5 10 -11 10 -5 0
-7 -4 -4 -10z"/>
<path d="M4635 2200 c-3 -5 -1 -10 4 -10 6 0 11 5 11 10 0 6 -2 10 -4 10 -3 0
-8 -4 -11 -10z"/>
<path d="M4635 2170 c-3 -5 -1 -10 4 -10 6 0 11 5 11 10 0 6 -2 10 -4 10 -3 0
-8 -4 -11 -10z"/>
<path d="M130 2105 c0 -8 4 -15 10 -15 5 0 7 7 4 15 -4 8 -8 15 -10 15 -2 0
-4 -7 -4 -15z"/>
<path d="M4646 2102 c-3 -5 1 -9 9 -9 8 0 12 4 9 9 -3 4 -7 8 -9 8 -2 0 -6 -4
-9 -8z"/>
<path d="M4630 1783 c0 -5 5 -15 10 -23 7 -12 9 -10 7 8 -1 19 -17 33 -17 15z"/>
<path d="M120 1699 c-7 -11 -9 -23 -7 -26 3 -2 8 5 12 16 3 12 11 18 17 15 7
-4 8 -2 4 4 -10 16 -14 15 -26 -9z"/>
<path d="M136 1681 c-3 -5 1 -11 9 -15 8 -3 15 -1 15 4 0 13 -18 22 -24 11z"/>
<path d="M4638 1683 c7 -3 16 -2 19 1 4 3 -2 6 -13 5 -11 0 -14 -3 -6 -6z"/>
<path d="M4640 1660 c-13 -8 -12 -10 3 -10 9 0 17 5 17 10 0 12 -1 12 -20 0z"/>
<path d="M130 1625 c0 -8 4 -15 10 -15 5 0 7 7 4 15 -4 8 -8 15 -10 15 -2 0
-4 -7 -4 -15z"/>
<path d="M4640 1540 c-12 -7 -10 -9 7 -7 12 0 19 5 17 9 -6 10 -6 10 -24 -2z"/>
<path d="M144 1533 c4 -7 2 -13 -3 -13 -16 0 -13 -27 2 -33 16 -6 17 37 3 50
-5 4 -6 2 -2 -4z"/>
<path d="M4637 1426 c-3 -8 0 -17 7 -19 10 -4 12 1 9 14 -6 23 -9 24 -16 5z"/>
<path d="M4630 1303 c0 -5 5 -15 10 -23 7 -12 9 -10 7 8 -1 19 -17 33 -17 15z"/>
<path d="M4635 1240 c-3 -5 -1 -10 4 -10 6 0 11 5 11 10 0 6 -2 10 -4 10 -3 0
-8 -4 -11 -10z"/>
<path d="M4635 1210 c-3 -5 -1 -10 4 -10 6 0 11 5 11 10 0 6 -2 10 -4 10 -3 0
-8 -4 -11 -10z"/>
<path d="M130 1145 c0 -8 4 -15 10 -15 5 0 7 7 4 15 -4 8 -8 15 -10 15 -2 0
-4 -7 -4 -15z"/>
<path d="M4646 1142 c-3 -5 1 -9 9 -9 8 0 12 4 9 9 -3 4 -7 8 -9 8 -2 0 -6 -4
-9 -8z"/>
<path d="M4655 930 c6 -10 4 -12 -8 -7 -9 3 -19 2 -22 -3 -9 -15 11 -20 30 -6
14 10 15 15 5 21 -9 6 -11 4 -5 -5z"/>
<path d="M4635 810 c3 -5 8 -10 11 -10 2 0 4 5 4 10 0 6 -5 10 -11 10 -5 0 -7
-4 -4 -10z"/>
<path d="M4626 761 c-4 -5 3 -7 14 -4 23 6 26 13 6 13 -8 0 -17 -4 -20 -9z"/>
<path d="M120 739 c-7 -11 -9 -23 -7 -26 3 -2 8 5 12 16 3 12 11 18 17 15 7
-4 8 -2 4 4 -10 16 -14 15 -26 -9z"/>
<path d="M136 721 c-3 -5 1 -11 9 -15 8 -3 15 -1 15 4 0 13 -18 22 -24 11z"/>
<path d="M130 665 c0 -8 4 -15 10 -15 5 0 7 7 4 15 -4 8 -8 15 -10 15 -2 0 -4
-7 -4 -15z"/>
<path d="M104 638 c-4 -7 -4 -10 1 -6 4 4 14 3 21 -3 9 -7 14 -6 20 3 4 7 4
10 -1 6 -4 -4 -14 -3 -21 3 -9 7 -14 6 -20 -3z"/>
<path d="M4646 618 c17 -19 17 -21 2 -15 -18 6 -35 -8 -20 -17 12 -7 35 10 38
28 1 9 -2 14 -7 10 -5 -3 -9 0 -9 5 0 6 -5 11 -12 11 -6 0 -3 -10 8 -22z"/>
<path d="M149 583 c-1 -5 -1 -11 0 -15 0 -5 -3 -8 -9 -8 -15 0 -12 -27 3 -33
9 -3 13 6 13 29 0 31 -4 46 -7 27z"/>
<path d="M4625 442 c0 -23 5 -37 15 -39 12 -4 12 -3 2 5 -19 13 -17 25 5 33
17 7 16 8 -2 8 -15 1 -17 3 -7 10 11 7 11 9 0 14 -10 3 -14 -4 -13 -31z"/>
<path d="M146 283 c-6 -14 -5 -15 5 -6 7 7 10 15 7 18 -3 3 -9 -2 -12 -12z"/>
<path d="M4516 175 c-3 -8 -1 -15 4 -15 6 0 10 7 10 15 0 8 -2 15 -4 15 -2 0
-6 -7 -10 -15z"/>
<path d="M374 109 c-3 -6 -3 -13 0 -16 3 -4 6 0 6 7 0 9 4 8 13 -4 12 -16 14
-16 14 -3 0 19 -24 30 -33 16z"/>
<path d="M533 104 c-3 -8 -3 -18 1 -21 3 -4 6 1 6 10 0 10 5 14 15 11 8 -4 15
-4 15 -1 0 14 -31 15 -37 1z"/>
<path d="M693 104 c-3 -8 -3 -18 1 -21 3 -4 6 1 6 10 0 10 5 14 15 11 8 -4 15
-4 15 -1 0 14 -31 15 -37 1z"/>
<path d="M1173 104 c-3 -8 -3 -18 1 -21 3 -4 6 1 6 10 0 10 5 14 15 11 8 -4
15 -4 15 -1 0 14 -31 15 -37 1z"/>
<path d="M1333 104 c-3 -8 -3 -18 1 -21 3 -4 6 1 6 10 0 10 5 14 15 11 8 -4
15 -4 15 -1 0 14 -31 15 -37 1z"/>
<path d="M1813 104 c-3 -8 -3 -18 1 -21 3 -4 6 1 6 10 0 10 5 14 15 11 8 -4
15 -4 15 -1 0 14 -31 15 -37 1z"/>
<path d="M1973 104 c-3 -8 -3 -18 1 -21 3 -4 6 1 6 10 0 10 5 14 15 11 8 -4
15 -4 15 -1 0 14 -31 15 -37 1z"/>
<path d="M2453 104 c-3 -8 -3 -18 1 -21 3 -4 6 1 6 10 0 10 5 14 15 11 8 -4
15 -4 15 -1 0 14 -31 15 -37 1z"/>
<path d="M2613 104 c-3 -8 -3 -18 1 -21 3 -4 6 1 6 10 0 10 5 14 15 11 8 -4
15 -4 15 -1 0 14 -31 15 -37 1z"/>
<path d="M3093 104 c-3 -8 -3 -18 1 -21 3 -4 6 1 6 10 0 10 5 14 15 11 8 -4
15 -4 15 -1 0 14 -31 15 -37 1z"/>
<path d="M3253 104 c-3 -8 -3 -18 1 -21 3 -4 6 1 6 10 0 10 5 14 15 11 8 -4
15 -4 15 -1 0 14 -31 15 -37 1z"/>
<path d="M3733 104 c-3 -8 -3 -18 1 -21 3 -4 6 1 6 10 0 10 5 14 15 11 8 -4
15 -4 15 -1 0 14 -31 15 -37 1z"/>
<path d="M3893 104 c-3 -8 -3 -18 1 -21 3 -4 6 1 6 10 0 10 5 14 15 11 8 -4
15 -4 15 -1 0 14 -31 15 -37 1z"/>
<path d="M491 90 c-13 -11 -19 -20 -13 -20 10 0 42 27 42 36 0 7 -4 5 -29 -16z"/>
<path d="M590 95 c5 -7 7 -15 3 -18 -3 -4 -1 -7 5 -7 6 0 10 8 9 18 0 10 -7
19 -14 19 -9 0 -10 -4 -3 -12z"/>
<path d="M660 95 c-7 -9 -10 -18 -7 -21 3 -3 10 4 17 15 13 25 8 27 -10 6z"/>
<path d="M750 95 c5 -7 7 -15 3 -18 -3 -4 -1 -7 5 -7 6 0 10 8 9 18 0 10 -7
19 -14 19 -9 0 -10 -4 -3 -12z"/>
<path d="M962 94 c-7 -8 -8 -14 -3 -14 10 0 25 19 20 25 -2 1 -10 -3 -17 -11z"/>
<path d="M1140 95 c-7 -9 -10 -18 -7 -21 3 -3 10 4 17 15 13 25 8 27 -10 6z"/>
<path d="M1230 95 c5 -7 7 -15 3 -18 -3 -4 -1 -7 5 -7 6 0 10 8 9 18 0 10 -7
19 -14 19 -9 0 -10 -4 -3 -12z"/>
<path d="M1300 95 c-7 -9 -10 -18 -7 -21 3 -3 10 4 17 15 13 25 8 27 -10 6z"/>
<path d="M1390 95 c5 -7 7 -15 3 -18 -3 -4 -1 -7 5 -7 6 0 10 8 9 18 0 10 -7
19 -14 19 -9 0 -10 -4 -3 -12z"/>
<path d="M1602 94 c-7 -8 -8 -14 -3 -14 10 0 25 19 20 25 -2 1 -10 -3 -17 -11z"/>
<path d="M1780 95 c-7 -9 -10 -18 -7 -21 3 -3 10 4 17 15 13 25 8 27 -10 6z"/>
<path d="M1870 95 c5 -7 7 -15 3 -18 -3 -4 -1 -7 5 -7 6 0 10 8 9 18 0 10 -7
19 -14 19 -9 0 -10 -4 -3 -12z"/>
<path d="M1940 95 c-7 -9 -10 -18 -7 -21 3 -3 10 4 17 15 13 25 8 27 -10 6z"/>
<path d="M2030 95 c5 -7 7 -15 3 -18 -3 -4 -1 -7 5 -7 6 0 10 8 9 18 0 10 -7
19 -14 19 -9 0 -10 -4 -3 -12z"/>
<path d="M2242 94 c-7 -8 -8 -14 -3 -14 10 0 25 19 20 25 -2 1 -10 -3 -17 -11z"/>
<path d="M2420 95 c-7 -9 -10 -18 -7 -21 3 -3 10 4 17 15 13 25 8 27 -10 6z"/>
<path d="M2510 95 c5 -7 7 -15 3 -18 -3 -4 -1 -7 5 -7 6 0 10 8 9 18 0 10 -7
19 -14 19 -9 0 -10 -4 -3 -12z"/>
<path d="M2580 95 c-7 -9 -10 -18 -7 -21 3 -3 10 4 17 15 13 25 8 27 -10 6z"/>
<path d="M2670 95 c5 -7 7 -15 3 -18 -3 -4 -1 -7 5 -7 6 0 10 8 9 18 0 10 -7
19 -14 19 -9 0 -10 -4 -3 -12z"/>
<path d="M2882 94 c-7 -8 -8 -14 -3 -14 10 0 25 19 20 25 -2 1 -10 -3 -17 -11z"/>
<path d="M3060 95 c-7 -9 -10 -18 -7 -21 3 -3 10 4 17 15 13 25 8 27 -10 6z"/>
<path d="M3150 95 c5 -7 7 -15 3 -18 -3 -4 -1 -7 5 -7 6 0 10 8 9 18 0 10 -7
19 -14 19 -9 0 -10 -4 -3 -12z"/>
<path d="M3220 95 c-7 -9 -10 -18 -7 -21 3 -3 10 4 17 15 13 25 8 27 -10 6z"/>
<path d="M3310 95 c5 -7 7 -15 3 -18 -3 -4 -1 -7 5 -7 6 0 10 8 9 18 0 10 -7
19 -14 19 -9 0 -10 -4 -3 -12z"/>
<path d="M3522 94 c-7 -8 -8 -14 -3 -14 10 0 25 19 20 25 -2 1 -10 -3 -17 -11z"/>
<path d="M3700 95 c-7 -9 -10 -18 -7 -21 3 -3 10 4 17 15 13 25 8 27 -10 6z"/>
<path d="M3790 95 c5 -7 7 -15 3 -18 -3 -4 -1 -7 5 -7 6 0 10 8 9 18 0 10 -7
19 -14 19 -9 0 -10 -4 -3 -12z"/>
<path d="M3860 95 c-7 -9 -10 -18 -7 -21 3 -3 10 4 17 15 13 25 8 27 -10 6z"/>
<path d="M3950 95 c5 -7 7 -15 3 -18 -3 -4 -1 -7 5 -7 6 0 10 8 9 18 0 10 -7
19 -14 19 -9 0 -10 -4 -3 -12z"/>
<path d="M4162 94 c-7 -8 -8 -14 -3 -14 10 0 25 19 20 25 -2 1 -10 -3 -17 -11z"/>
<path d="M4370 91 c0 -6 4 -13 10 -16 6 -3 7 1 4 9 -7 18 -14 21 -14 7z"/>
<path d="M556 78 c3 -5 10 -6 15 -3 13 9 11 12 -6 12 -8 0 -12 -4 -9 -9z"/>
<path d="M716 78 c3 -5 10 -6 15 -3 13 9 11 12 -6 12 -8 0 -12 -4 -9 -9z"/>
<path d="M1196 78 c3 -5 10 -6 15 -3 13 9 11 12 -6 12 -8 0 -12 -4 -9 -9z"/>
<path d="M1356 78 c3 -5 10 -6 15 -3 13 9 11 12 -6 12 -8 0 -12 -4 -9 -9z"/>
<path d="M1836 78 c3 -5 10 -6 15 -3 13 9 11 12 -6 12 -8 0 -12 -4 -9 -9z"/>
<path d="M1996 78 c3 -5 10 -6 15 -3 13 9 11 12 -6 12 -8 0 -12 -4 -9 -9z"/>
<path d="M2476 78 c3 -5 10 -6 15 -3 13 9 11 12 -6 12 -8 0 -12 -4 -9 -9z"/>
<path d="M2636 78 c3 -5 10 -6 15 -3 13 9 11 12 -6 12 -8 0 -12 -4 -9 -9z"/>
<path d="M3116 78 c3 -5 10 -6 15 -3 13 9 11 12 -6 12 -8 0 -12 -4 -9 -9z"/>
<path d="M3276 78 c3 -5 10 -6 15 -3 13 9 11 12 -6 12 -8 0 -12 -4 -9 -9z"/>
<path d="M3756 78 c3 -5 10 -6 15 -3 13 9 11 12 -6 12 -8 0 -12 -4 -9 -9z"/>
<path d="M3916 78 c3 -5 10 -6 15 -3 13 9 11 12 -6 12 -8 0 -12 -4 -9 -9z"/>
</g>
</svg>
